<?xml version="1.0" encoding="utf-8"?>
<svg viewBox="-2.225 237.165 1646.302 618.459" xmlns="http://www.w3.org/2000/svg">
  <path d="M 646.213 585.184 C 652.425 578.067 660.526 572.856 669.578 570.153 L 799.722 531.298 L 936.55 468.928 C 939.656 467.511 942.61 465.781 945.364 463.763 L 1051.102 386.282 C 1055.162 383.309 1058.742 379.742 1061.732 375.701 L 1152.722 252.798 L 1479.732 526.524 C 1483.512 529.689 1487.742 532.278 1492.282 534.205 L 1848.342 685.409 C 1893.522 704.599 1886.882 770.622 1838.782 780.425 L 927.682 966.09 C 922.109 967.225 916.383 967.402 910.751 966.612 L 687.274 935.257 C 682.665 934.61 677.988 934.61 673.379 935.257 L 441.392 967.806 L 191.089 1024.566 C 177.762 1027.588 163.779 1025.024 152.392 1017.47 L 17.527 928.005 C -19.482 903.455 -8.502 846.44 34.977 837.389 L 381.241 765.307 C 384.553 764.618 387.787 763.594 390.892 762.252 L 542.336 696.78 C 549.173 693.824 555.264 689.377 560.163 683.765 L 646.213 585.184 Z" fill="#B51FAE" fill-opacity="0.8" transform="matrix(0.9999999999999999, 0, 0, 0.9999999999999999, -2.842170943040401e-14, 0)"/>
  <path d="M 736.722 694.79 L 797.772 591.902 C 804.469 580.615 815.334 572.415 828.024 569.069 L 898.752 550.419 C 905.329 548.685 911.484 545.626 916.839 541.431 L 1057.962 430.867 C 1063.092 426.854 1067.372 421.881 1070.592 416.225 L 1140.222 293.79 L 1163.222 242.29 L 1212.112 350.036 C 1213.842 353.857 1216.052 357.444 1218.682 360.714 L 1270.222 424.79 L 1381.432 484.001 C 1384.282 485.518 1386.982 487.308 1389.492 489.345 L 1488.442 569.824 C 1492.082 572.787 1496.122 575.221 1500.442 577.056 L 1856.842 728.401 C 1902.022 747.591 1895.382 813.614 1847.282 823.417 L 936.182 1009.082 C 930.609 1010.217 924.883 1010.394 919.251 1009.604 L 695.774 978.249 C 691.165 977.602 686.488 977.602 681.879 978.249 L 449.892 1010.798 L 199.589 1067.558 C 186.262 1070.58 172.279 1068.016 160.892 1060.462 L 35.429 977.234 C -2.836 951.851 10.482 892.636 55.93 886.081 L 662.403 798.601 C 678.915 796.22 693.152 785.759 700.359 770.712 L 736.722 694.79 Z" fill="#250634" fill-opacity="0.8" transform="matrix(0.9999999999999999, 0, 0, 0.9999999999999999, -2.842170943040401e-14, 0)"/>
</svg>