<?xml version="1.0" encoding="utf-8"?>
<svg viewBox="-500.681 -14.882 1705.117 604.177" xmlns="http://www.w3.org/2000/svg">
  <path d="M -299.548 -262.388 C -299.748 -262.388 -299.848 -262.496 -299.848 -262.712 L -299.848 -266.528 C -299.848 -266.744 -299.748 -266.852 -299.548 -266.852 L -295.708 -266.852 C -295.508 -266.852 -295.408 -266.744 -295.408 -266.528 L -295.408 -262.712 C -295.408 -262.496 -295.508 -262.388 -295.708 -262.388 L -299.548 -262.388 Z M -138.456 -273.956 C -137.064 -273.956 -135.912 -272.804 -135.912 -271.412 C -135.912 -269.996 -137.064 -268.844 -138.456 -268.844 C -139.872 -268.844 -141.024 -269.996 -141.024 -271.412 C -141.024 -272.804 -139.872 -273.956 -138.456 -273.956 Z M 18.144 -279.26 C 18.144 -280.772 19.368 -282.02 20.904 -282.02 C 22.416 -282.02 23.64 -280.772 23.64 -279.26 C 23.64 -277.748 22.416 -276.524 20.904 -276.524 C 19.368 -276.524 18.144 -277.748 18.144 -279.26 Z M 19.2 -279.26 C 19.2 -278.396 19.992 -277.556 20.904 -277.556 C 21.792 -277.556 22.584 -278.372 22.584 -279.26 C 22.584 -280.148 21.792 -280.94 20.904 -280.94 C 19.992 -280.94 19.2 -280.148 19.2 -279.26 Z M 186.144 -279.26 C 186.144 -280.772 187.368 -282.02 188.904 -282.02 C 190.416 -282.02 191.64 -280.772 191.64 -279.26 C 191.64 -277.748 190.416 -276.524 188.904 -276.524 C 187.368 -276.524 186.144 -277.748 186.144 -279.26 Z M 187.2 -279.26 C 187.2 -278.396 187.992 -277.556 188.904 -277.556 C 189.792 -277.556 190.584 -278.372 190.584 -279.26 C 190.584 -280.148 189.792 -280.94 188.904 -280.94 C 187.992 -280.94 187.2 -280.148 187.2 -279.26 Z M 365.544 -273.956 C 366.936 -273.956 368.088 -272.804 368.088 -271.412 C 368.088 -269.996 366.936 -268.844 365.544 -268.844 C 364.128 -268.844 362.976 -269.996 362.976 -271.412 C 362.976 -272.804 364.128 -273.956 365.544 -273.956 Z M 840.942 -270.656 L 840.602 -270.848 C 840.422 -270.944 840.382 -271.08 840.482 -271.256 L 842.342 -274.496 L 838.622 -274.496 C 838.422 -274.496 838.322 -274.596 838.322 -274.796 L 838.322 -275.192 C 838.322 -275.392 838.422 -275.492 838.622 -275.492 L 842.342 -275.492 L 840.482 -278.732 C 840.382 -278.908 840.422 -279.04 840.602 -279.128 L 840.942 -279.332 C 841.122 -279.436 841.262 -279.404 841.362 -279.236 L 843.222 -276.008 L 845.082 -279.236 C 845.192 -279.404 845.332 -279.436 845.502 -279.332 L 845.852 -279.128 C 846.022 -279.048 846.062 -278.916 845.972 -278.732 L 844.112 -275.492 L 847.832 -275.492 C 848.032 -275.492 848.132 -275.392 848.132 -275.192 L 848.132 -274.796 C 848.132 -274.596 848.032 -274.496 847.832 -274.496 L 844.112 -274.496 L 845.972 -271.256 C 846.052 -271.072 846.012 -270.936 845.852 -270.848 L 845.502 -270.656 C 845.322 -270.536 845.182 -270.568 845.082 -270.752 L 843.222 -273.968 L 841.362 -270.752 C 841.262 -270.568 841.122 -270.536 840.942 -270.656 Z M 996.512 -260.516 L 996.512 -263.18 L 993.922 -263.18 L 993.922 -264.428 L 996.512 -264.428 L 996.512 -267.092 L 997.762 -267.092 L 997.762 -264.428 L 1000.352 -264.428 L 1000.352 -263.18 L 997.762 -263.18 L 997.762 -260.516 L 996.512 -260.516 Z M -442.259 -232.388 C -442.459 -232.388 -442.559 -232.496 -442.559 -232.712 L -442.559 -236.528 C -442.559 -236.744 -442.459 -236.852 -442.259 -236.852 L -438.419 -236.852 C -438.219 -236.852 -438.119 -236.744 -438.119 -236.528 L -438.119 -232.712 C -438.119 -232.496 -438.219 -232.388 -438.419 -232.388 L -442.259 -232.388 Z M -113.167 -243.956 C -111.775 -243.956 -110.623 -242.804 -110.623 -241.412 C -110.623 -239.996 -111.775 -238.844 -113.167 -238.844 C -114.583 -238.844 -115.735 -239.996 -115.735 -241.412 C -115.735 -242.804 -114.583 -243.956 -113.167 -243.956 Z M 43.433 -249.26 C 43.433 -250.772 44.657 -252.02 46.193 -252.02 C 47.705 -252.02 48.929 -250.772 48.929 -249.26 C 48.929 -247.748 47.705 -246.524 46.193 -246.524 C 44.657 -246.524 43.433 -247.748 43.433 -249.26 Z M 44.489 -249.26 C 44.489 -248.396 45.281 -247.556 46.193 -247.556 C 47.081 -247.556 47.873 -248.372 47.873 -249.26 C 47.873 -250.148 47.081 -250.94 46.193 -250.94 C 45.281 -250.94 44.489 -250.148 44.489 -249.26 Z M 211.433 -249.26 C 211.433 -250.772 212.657 -252.02 214.193 -252.02 C 215.705 -252.02 216.929 -250.772 216.929 -249.26 C 216.929 -247.748 215.705 -246.524 214.193 -246.524 C 212.657 -246.524 211.433 -247.748 211.433 -249.26 Z M 212.489 -249.26 C 212.489 -248.396 213.281 -247.556 214.193 -247.556 C 215.081 -247.556 215.873 -248.372 215.873 -249.26 C 215.873 -250.148 215.081 -250.94 214.193 -250.94 C 213.281 -250.94 212.489 -250.148 212.489 -249.26 Z M 390.833 -243.956 C 392.225 -243.956 393.377 -242.804 393.377 -241.412 C 393.377 -239.996 392.225 -238.844 390.833 -238.844 C 389.417 -238.844 388.265 -239.996 388.265 -241.412 C 388.265 -242.804 389.417 -243.956 390.833 -243.956 Z M 1141.022 -243.488 C 1140.302 -243.488 1139.722 -243.712 1139.282 -244.16 C 1138.842 -244.616 1138.622 -245.192 1138.622 -245.888 C 1138.622 -246.592 1138.842 -247.168 1139.282 -247.616 C 1139.722 -248.064 1140.302 -248.288 1141.022 -248.288 C 1141.732 -248.288 1142.302 -248.064 1142.742 -247.616 C 1143.192 -247.168 1143.422 -246.592 1143.422 -245.888 C 1143.422 -245.192 1143.192 -244.616 1142.742 -244.16 C 1142.302 -243.712 1141.732 -243.488 1141.022 -243.488 Z M 1141.022 -244.472 C 1141.442 -244.472 1141.782 -244.604 1142.022 -244.868 C 1142.282 -245.14 1142.412 -245.48 1142.412 -245.888 C 1142.412 -246.304 1142.282 -246.644 1142.022 -246.908 C 1141.782 -247.18 1141.442 -247.316 1141.022 -247.316 C 1140.602 -247.316 1140.262 -247.18 1140.002 -246.908 C 1139.742 -246.644 1139.612 -246.304 1139.612 -245.888 C 1139.612 -245.48 1139.742 -245.14 1140.002 -244.868 C 1140.262 -244.604 1140.602 -244.472 1141.022 -244.472 Z M 198.546 -202.388 C 198.346 -202.388 198.246 -202.496 198.246 -202.712 L 198.246 -206.528 C 198.246 -206.744 198.346 -206.852 198.546 -206.852 L 202.386 -206.852 C 202.586 -206.852 202.686 -206.744 202.686 -206.528 L 202.686 -202.712 C 202.686 -202.496 202.586 -202.388 202.386 -202.388 L 198.546 -202.388 Z M -328.255 -183.488 C -328.967 -183.488 -329.547 -183.712 -329.995 -184.16 C -330.435 -184.616 -330.655 -185.192 -330.655 -185.888 C -330.655 -186.592 -330.435 -187.168 -329.995 -187.616 C -329.547 -188.064 -328.967 -188.288 -328.255 -188.288 C -327.543 -188.288 -326.967 -188.064 -326.527 -187.616 C -326.079 -187.168 -325.855 -186.592 -325.855 -185.888 C -325.855 -185.192 -326.079 -184.616 -326.527 -184.16 C -326.967 -183.712 -327.543 -183.488 -328.255 -183.488 Z M -328.255 -184.472 C -327.831 -184.472 -327.495 -184.604 -327.247 -184.868 C -326.991 -185.14 -326.863 -185.48 -326.863 -185.888 C -326.863 -186.304 -326.991 -186.644 -327.247 -186.908 C -327.495 -187.18 -327.831 -187.316 -328.255 -187.316 C -328.671 -187.316 -329.011 -187.18 -329.275 -186.908 C -329.531 -186.644 -329.659 -186.304 -329.659 -185.888 C -329.659 -185.48 -329.531 -185.14 -329.275 -184.868 C -329.011 -184.604 -328.671 -184.472 -328.255 -184.472 Z M -32.29 -172.388 C -32.49 -172.388 -32.59 -172.496 -32.59 -172.712 L -32.59 -176.528 C -32.59 -176.744 -32.49 -176.852 -32.29 -176.852 L -28.45 -176.852 C -28.25 -176.852 -28.15 -176.744 -28.15 -176.528 L -28.15 -172.712 C -28.15 -172.496 -28.25 -172.388 -28.45 -172.388 L -32.29 -172.388 Z M 118.217 -176.504 C 117.913 -176.504 117.761 -176.668 117.761 -176.996 L 117.761 -182.732 C 117.761 -183.052 117.913 -183.212 118.217 -183.212 L 123.989 -183.212 C 124.285 -183.212 124.433 -183.052 124.433 -182.732 L 124.433 -176.996 C 124.433 -176.668 124.285 -176.504 123.989 -176.504 L 118.217 -176.504 Z M 420.127 -183.488 C 419.415 -183.488 418.835 -183.712 418.387 -184.16 C 417.947 -184.616 417.727 -185.192 417.727 -185.888 C 417.727 -186.592 417.947 -187.168 418.387 -187.616 C 418.835 -188.064 419.415 -188.288 420.127 -188.288 C 420.839 -188.288 421.415 -188.064 421.855 -187.616 C 422.303 -187.168 422.527 -186.592 422.527 -185.888 C 422.527 -185.192 422.303 -184.616 421.855 -184.16 C 421.415 -183.712 420.839 -183.488 420.127 -183.488 Z M 420.127 -184.472 C 420.551 -184.472 420.887 -184.604 421.135 -184.868 C 421.391 -185.14 421.519 -185.48 421.519 -185.888 C 421.519 -186.304 421.391 -186.644 421.135 -186.908 C 420.887 -187.18 420.551 -187.316 420.127 -187.316 C 419.711 -187.316 419.371 -187.18 419.107 -186.908 C 418.851 -186.644 418.723 -186.304 418.723 -185.888 C 418.723 -185.48 418.851 -185.14 419.107 -184.868 C 419.371 -184.604 419.711 -184.472 420.127 -184.472 Z M 568.272 -172.304 C 568.072 -172.304 567.972 -172.412 567.972 -172.628 L 567.972 -176.444 C 567.972 -176.66 568.072 -176.768 568.272 -176.768 L 572.112 -176.768 C 572.312 -176.768 572.412 -176.66 572.412 -176.444 L 572.412 -172.628 C 572.412 -172.412 572.312 -172.304 572.112 -172.304 L 568.272 -172.304 Z M 568.272 -180.584 C 568.072 -180.584 567.972 -180.692 567.972 -180.908 L 567.972 -184.724 C 567.972 -184.94 568.072 -185.048 568.272 -185.048 L 572.112 -185.048 C 572.312 -185.048 572.412 -184.94 572.412 -184.724 L 572.412 -180.908 C 572.412 -180.692 572.312 -180.584 572.112 -180.584 L 568.272 -180.584 Z M 718.622 -172.388 C 718.422 -172.388 718.322 -172.496 718.322 -172.712 L 718.322 -176.528 C 718.322 -176.744 718.422 -176.852 718.622 -176.852 L 722.462 -176.852 C 722.662 -176.852 722.762 -176.744 722.762 -176.528 L 722.762 -172.712 C 722.762 -172.496 722.662 -172.388 722.462 -172.388 L 718.622 -172.388 Z M 1019.112 -180.656 L 1018.772 -180.848 C 1018.592 -180.944 1018.552 -181.08 1018.652 -181.256 L 1020.512 -184.496 L 1016.792 -184.496 C 1016.592 -184.496 1016.492 -184.596 1016.492 -184.796 L 1016.492 -185.192 C 1016.492 -185.392 1016.592 -185.492 1016.792 -185.492 L 1020.512 -185.492 L 1018.652 -188.732 C 1018.552 -188.908 1018.592 -189.04 1018.772 -189.128 L 1019.112 -189.332 C 1019.292 -189.436 1019.432 -189.404 1019.532 -189.236 L 1021.392 -186.008 L 1023.252 -189.236 C 1023.362 -189.404 1023.502 -189.436 1023.672 -189.332 L 1024.022 -189.128 C 1024.192 -189.048 1024.232 -188.916 1024.142 -188.732 L 1022.282 -185.492 L 1026.002 -185.492 C 1026.202 -185.492 1026.302 -185.392 1026.302 -185.192 L 1026.302 -184.796 C 1026.302 -184.596 1026.202 -184.496 1026.002 -184.496 L 1022.282 -184.496 L 1024.142 -181.256 C 1024.232 -181.072 1024.192 -180.936 1024.022 -180.848 L 1023.672 -180.656 C 1023.492 -180.536 1023.352 -180.568 1023.252 -180.752 L 1021.392 -183.968 L 1019.532 -180.752 C 1019.432 -180.568 1019.292 -180.536 1019.112 -180.656 Z M 1174.682 -170.516 L 1174.682 -173.18 L 1172.092 -173.18 L 1172.092 -174.428 L 1174.682 -174.428 L 1174.682 -177.092 L 1175.932 -177.092 L 1175.932 -174.428 L 1178.522 -174.428 L 1178.522 -173.18 L 1175.932 -173.18 L 1175.932 -170.516 L 1174.682 -170.516 Z M -249.808 -153.956 C -248.416 -153.956 -247.264 -152.804 -247.264 -151.412 C -247.264 -149.996 -248.416 -148.844 -249.808 -148.844 C -251.224 -148.844 -252.376 -149.996 -252.376 -151.412 C -252.376 -152.804 -251.224 -153.956 -249.808 -153.956 Z M -93.208 -159.26 C -93.208 -160.772 -91.984 -162.02 -90.448 -162.02 C -88.936 -162.02 -87.712 -160.772 -87.712 -159.26 C -87.712 -157.748 -88.936 -156.524 -90.448 -156.524 C -91.984 -156.524 -93.208 -157.748 -93.208 -159.26 Z M -92.152 -159.26 C -92.152 -158.396 -91.36 -157.556 -90.448 -157.556 C -89.56 -157.556 -88.768 -158.372 -88.768 -159.26 C -88.768 -160.148 -89.56 -160.94 -90.448 -160.94 C -91.36 -160.94 -92.152 -160.148 -92.152 -159.26 Z M 74.792 -159.26 C 74.792 -160.772 76.016 -162.02 77.552 -162.02 C 79.064 -162.02 80.288 -160.772 80.288 -159.26 C 80.288 -157.748 79.064 -156.524 77.552 -156.524 C 76.016 -156.524 74.792 -157.748 74.792 -159.26 Z M 75.848 -159.26 C 75.848 -158.396 76.64 -157.556 77.552 -157.556 C 78.44 -157.556 79.232 -158.372 79.232 -159.26 C 79.232 -160.148 78.44 -160.94 77.552 -160.94 C 76.64 -160.94 75.848 -160.148 75.848 -159.26 Z M 254.192 -153.956 C 255.584 -153.956 256.736 -152.804 256.736 -151.412 C 256.736 -149.996 255.584 -148.844 254.192 -148.844 C 252.776 -148.844 251.624 -149.996 251.624 -151.412 C 251.624 -152.804 252.776 -153.956 254.192 -153.956 Z M 415.928 -142.364 C 414.896 -142.364 414.008 -143.156 414.008 -144.26 C 414.008 -145.34 414.896 -146.132 415.928 -146.132 C 416.936 -146.132 417.824 -145.34 417.824 -144.26 C 417.824 -143.156 416.936 -142.364 415.928 -142.364 Z M 578.792 -159.26 C 578.792 -160.772 580.016 -162.02 581.552 -162.02 C 583.064 -162.02 584.288 -160.772 584.288 -159.26 C 584.288 -157.748 583.064 -156.524 581.552 -156.524 C 580.016 -156.524 578.792 -157.748 578.792 -159.26 Z M 579.848 -159.26 C 579.848 -158.396 580.64 -157.556 581.552 -157.556 C 582.44 -157.556 583.232 -158.372 583.232 -159.26 C 583.232 -160.148 582.44 -160.94 581.552 -160.94 C 580.64 -160.94 579.848 -160.148 579.848 -159.26 Z M 746.792 -159.26 C 746.792 -160.772 748.012 -162.02 749.552 -162.02 C 751.062 -162.02 752.292 -160.772 752.292 -159.26 C 752.292 -157.748 751.062 -156.524 749.552 -156.524 C 748.012 -156.524 746.792 -157.748 746.792 -159.26 Z M 747.852 -159.26 C 747.852 -158.396 748.642 -157.556 749.552 -157.556 C 750.442 -157.556 751.232 -158.372 751.232 -159.26 C 751.232 -160.148 750.442 -160.94 749.552 -160.94 C 748.642 -160.94 747.852 -160.148 747.852 -159.26 Z M 926.192 -153.956 C 927.582 -153.956 928.732 -152.804 928.732 -151.412 C 928.732 -149.996 927.582 -148.844 926.192 -148.844 C 924.772 -148.844 923.622 -149.996 923.622 -151.412 C 923.622 -152.804 924.772 -153.956 926.192 -153.956 Z M -469.628 -123.956 C -468.236 -123.956 -467.084 -122.804 -467.084 -121.412 C -467.084 -119.996 -468.236 -118.844 -469.628 -118.844 C -471.044 -118.844 -472.196 -119.996 -472.196 -121.412 C -472.196 -122.804 -471.044 -123.956 -469.628 -123.956 Z M -313.028 -129.26 C -313.028 -130.772 -311.804 -132.02 -310.268 -132.02 C -308.756 -132.02 -307.532 -130.772 -307.532 -129.26 C -307.532 -127.748 -308.756 -126.524 -310.268 -126.524 C -311.804 -126.524 -313.028 -127.748 -313.028 -129.26 Z M -311.972 -129.26 C -311.972 -128.396 -311.18 -127.556 -310.268 -127.556 C -309.38 -127.556 -308.588 -128.372 -308.588 -129.26 C -308.588 -130.148 -309.38 -130.94 -310.268 -130.94 C -311.18 -130.94 -311.972 -130.148 -311.972 -129.26 Z M -145.028 -129.26 C -145.028 -130.772 -143.804 -132.02 -142.268 -132.02 C -140.756 -132.02 -139.532 -130.772 -139.532 -129.26 C -139.532 -127.748 -140.756 -126.524 -142.268 -126.524 C -143.804 -126.524 -145.028 -127.748 -145.028 -129.26 Z M -143.972 -129.26 C -143.972 -128.396 -143.18 -127.556 -142.268 -127.556 C -141.38 -127.556 -140.588 -128.372 -140.588 -129.26 C -140.588 -130.148 -141.38 -130.94 -142.268 -130.94 C -143.18 -130.94 -143.972 -130.148 -143.972 -129.26 Z M 34.372 -123.956 C 35.764 -123.956 36.916 -122.804 36.916 -121.412 C 36.916 -119.996 35.764 -118.844 34.372 -118.844 C 32.956 -118.844 31.804 -119.996 31.804 -121.412 C 31.804 -122.804 32.956 -123.956 34.372 -123.956 Z M 370.372 -123.956 C 371.764 -123.956 372.916 -122.804 372.916 -121.412 C 372.916 -119.996 371.764 -118.844 370.372 -118.844 C 368.956 -118.844 367.804 -119.996 367.804 -121.412 C 367.804 -122.804 368.956 -123.956 370.372 -123.956 Z M 822.612 -129.26 C 822.612 -130.772 823.832 -132.02 825.372 -132.02 C 826.882 -132.02 828.112 -130.772 828.112 -129.26 C 828.112 -127.748 826.882 -126.524 825.372 -126.524 C 823.832 -126.524 822.612 -127.748 822.612 -129.26 Z M 823.672 -129.26 C 823.672 -128.396 824.462 -127.556 825.372 -127.556 C 826.262 -127.556 827.052 -128.372 827.052 -129.26 C 827.052 -130.148 826.262 -130.94 825.372 -130.94 C 824.462 -130.94 823.672 -130.148 823.672 -129.26 Z M 990.612 -129.26 C 990.612 -130.772 991.832 -132.02 993.372 -132.02 C 994.882 -132.02 996.112 -130.772 996.112 -129.26 C 996.112 -127.748 994.882 -126.524 993.372 -126.524 C 991.832 -126.524 990.612 -127.748 990.612 -129.26 Z M 991.672 -129.26 C 991.672 -128.396 992.462 -127.556 993.372 -127.556 C 994.262 -127.556 995.052 -128.372 995.052 -129.26 C 995.052 -130.148 994.262 -130.94 993.372 -130.94 C 992.462 -130.94 991.672 -130.148 991.672 -129.26 Z M 1170.012 -123.956 C 1171.402 -123.956 1172.552 -122.804 1172.552 -121.412 C 1172.552 -119.996 1171.402 -118.844 1170.012 -118.844 C 1168.592 -118.844 1167.442 -119.996 1167.442 -121.412 C 1167.442 -122.804 1168.592 -123.956 1170.012 -123.956 Z M -101.884 -93.488 C -102.596 -93.488 -103.176 -93.712 -103.624 -94.16 C -104.064 -94.616 -104.284 -95.192 -104.284 -95.888 C -104.284 -96.592 -104.064 -97.168 -103.624 -97.616 C -103.176 -98.064 -102.596 -98.288 -101.884 -98.288 C -101.172 -98.288 -100.596 -98.064 -100.156 -97.616 C -99.708 -97.168 -99.484 -96.592 -99.484 -95.888 C -99.484 -95.192 -99.708 -94.616 -100.156 -94.16 C -100.596 -93.712 -101.172 -93.488 -101.884 -93.488 Z M -101.884 -94.472 C -101.46 -94.472 -101.124 -94.604 -100.876 -94.868 C -100.62 -95.14 -100.492 -95.48 -100.492 -95.888 C -100.492 -96.304 -100.62 -96.644 -100.876 -96.908 C -101.124 -97.18 -101.46 -97.316 -101.884 -97.316 C -102.3 -97.316 -102.64 -97.18 -102.904 -96.908 C -103.16 -96.644 -103.288 -96.304 -103.288 -95.888 C -103.288 -95.48 -103.16 -95.14 -102.904 -94.868 C -102.64 -94.604 -102.3 -94.472 -101.884 -94.472 Z M 46.261 -82.304 C 46.061 -82.304 45.961 -82.412 45.961 -82.628 L 45.961 -86.444 C 45.961 -86.66 46.061 -86.768 46.261 -86.768 L 50.101 -86.768 C 50.301 -86.768 50.401 -86.66 50.401 -86.444 L 50.401 -82.628 C 50.401 -82.412 50.301 -82.304 50.101 -82.304 L 46.261 -82.304 Z M 46.261 -90.584 C 46.061 -90.584 45.961 -90.692 45.961 -90.908 L 45.961 -94.724 C 45.961 -94.94 46.061 -95.048 46.261 -95.048 L 50.101 -95.048 C 50.301 -95.048 50.401 -94.94 50.401 -94.724 L 50.401 -90.908 C 50.401 -90.692 50.301 -90.584 50.101 -90.584 L 46.261 -90.584 Z M 196.612 -82.388 C 196.412 -82.388 196.312 -82.496 196.312 -82.712 L 196.312 -86.528 C 196.312 -86.744 196.412 -86.852 196.612 -86.852 L 200.452 -86.852 C 200.652 -86.852 200.752 -86.744 200.752 -86.528 L 200.752 -82.712 C 200.752 -82.496 200.652 -82.388 200.452 -82.388 L 196.612 -82.388 Z M 497.1 -90.656 L 496.764 -90.848 C 496.58 -90.944 496.54 -91.08 496.644 -91.256 L 498.504 -94.496 L 494.784 -94.496 C 494.584 -94.496 494.484 -94.596 494.484 -94.796 L 494.484 -95.192 C 494.484 -95.392 494.584 -95.492 494.784 -95.492 L 498.504 -95.492 L 496.644 -98.732 C 496.54 -98.908 496.58 -99.04 496.764 -99.128 L 497.1 -99.332 C 497.284 -99.436 497.424 -99.404 497.52 -99.236 L 499.38 -96.008 L 501.24 -99.236 C 501.352 -99.404 501.492 -99.436 501.66 -99.332 L 502.008 -99.128 C 502.184 -99.048 502.224 -98.916 502.128 -98.732 L 500.268 -95.492 L 503.988 -95.492 C 504.188 -95.492 504.288 -95.392 504.288 -95.192 L 504.288 -94.796 C 504.288 -94.596 504.188 -94.496 503.988 -94.496 L 500.268 -94.496 L 502.128 -91.256 C 502.216 -91.072 502.176 -90.936 502.008 -90.848 L 501.66 -90.656 C 501.484 -90.536 501.344 -90.568 501.24 -90.752 L 499.38 -93.968 L 497.52 -90.752 C 497.424 -90.568 497.284 -90.536 497.1 -90.656 Z M 800.492 -80.516 L 800.492 -83.18 L 797.902 -83.18 L 797.902 -84.428 L 800.492 -84.428 L 800.492 -87.092 L 801.742 -87.092 L 801.742 -84.428 L 804.332 -84.428 L 804.332 -83.18 L 801.742 -83.18 L 801.742 -80.516 L 800.492 -80.516 Z M -299.548 -52.388 C -299.748 -52.388 -299.848 -52.496 -299.848 -52.712 L -299.848 -56.528 C -299.848 -56.744 -299.748 -56.852 -299.548 -56.852 L -295.708 -56.852 C -295.508 -56.852 -295.408 -56.744 -295.408 -56.528 L -295.408 -52.712 C -295.408 -52.496 -295.508 -52.388 -295.708 -52.388 L -299.548 -52.388 Z M -138.456 -63.956 C -137.064 -63.956 -135.912 -62.804 -135.912 -61.412 C -135.912 -59.996 -137.064 -58.844 -138.456 -58.844 C -139.872 -58.844 -141.024 -59.996 -141.024 -61.412 C -141.024 -62.804 -139.872 -63.956 -138.456 -63.956 Z M 18.144 -69.26 C 18.144 -70.772 19.368 -72.02 20.904 -72.02 C 22.416 -72.02 23.64 -70.772 23.64 -69.26 C 23.64 -67.748 22.416 -66.524 20.904 -66.524 C 19.368 -66.524 18.144 -67.748 18.144 -69.26 Z M 19.2 -69.26 C 19.2 -68.396 19.992 -67.556 20.904 -67.556 C 21.792 -67.556 22.584 -68.372 22.584 -69.26 C 22.584 -70.148 21.792 -70.94 20.904 -70.94 C 19.992 -70.94 19.2 -70.148 19.2 -69.26 Z M 186.144 -69.26 C 186.144 -70.772 187.368 -72.02 188.904 -72.02 C 190.416 -72.02 191.64 -70.772 191.64 -69.26 C 191.64 -67.748 190.416 -66.524 188.904 -66.524 C 187.368 -66.524 186.144 -67.748 186.144 -69.26 Z M 187.2 -69.26 C 187.2 -68.396 187.992 -67.556 188.904 -67.556 C 189.792 -67.556 190.584 -68.372 190.584 -69.26 C 190.584 -70.148 189.792 -70.94 188.904 -70.94 C 187.992 -70.94 187.2 -70.148 187.2 -69.26 Z M 365.544 -63.956 C 366.936 -63.956 368.088 -62.804 368.088 -61.412 C 368.088 -59.996 366.936 -58.844 365.544 -58.844 C 364.128 -58.844 362.976 -59.996 362.976 -61.412 C 362.976 -62.804 364.128 -63.956 365.544 -63.956 Z M 840.942 -60.656 L 840.602 -60.848 C 840.422 -60.944 840.382 -61.08 840.482 -61.256 L 842.342 -64.496 L 838.622 -64.496 C 838.422 -64.496 838.322 -64.596 838.322 -64.796 L 838.322 -65.192 C 838.322 -65.392 838.422 -65.492 838.622 -65.492 L 842.342 -65.492 L 840.482 -68.732 C 840.382 -68.908 840.422 -69.04 840.602 -69.128 L 840.942 -69.332 C 841.122 -69.436 841.262 -69.404 841.362 -69.236 L 843.222 -66.008 L 845.082 -69.236 C 845.192 -69.404 845.332 -69.436 845.502 -69.332 L 845.852 -69.128 C 846.022 -69.048 846.062 -68.916 845.972 -68.732 L 844.112 -65.492 L 847.832 -65.492 C 848.032 -65.492 848.132 -65.392 848.132 -65.192 L 848.132 -64.796 C 848.132 -64.596 848.032 -64.496 847.832 -64.496 L 844.112 -64.496 L 845.972 -61.256 C 846.052 -61.072 846.012 -60.936 845.852 -60.848 L 845.502 -60.656 C 845.322 -60.536 845.182 -60.568 845.082 -60.752 L 843.222 -63.968 L 841.362 -60.752 C 841.262 -60.568 841.122 -60.536 840.942 -60.656 Z M 996.512 -50.516 L 996.512 -53.18 L 993.922 -53.18 L 993.922 -54.428 L 996.512 -54.428 L 996.512 -57.092 L 997.762 -57.092 L 997.762 -54.428 L 1000.352 -54.428 L 1000.352 -53.18 L 997.762 -53.18 L 997.762 -50.516 L 996.512 -50.516 Z M -442.259 -22.388 C -442.459 -22.388 -442.559 -22.496 -442.559 -22.712 L -442.559 -26.528 C -442.559 -26.744 -442.459 -26.852 -442.259 -26.852 L -438.419 -26.852 C -438.219 -26.852 -438.119 -26.744 -438.119 -26.528 L -438.119 -22.712 C -438.119 -22.496 -438.219 -22.388 -438.419 -22.388 L -442.259 -22.388 Z M -113.167 -33.956 C -111.775 -33.956 -110.623 -32.804 -110.623 -31.412 C -110.623 -29.996 -111.775 -28.844 -113.167 -28.844 C -114.583 -28.844 -115.735 -29.996 -115.735 -31.412 C -115.735 -32.804 -114.583 -33.956 -113.167 -33.956 Z M 43.433 -39.26 C 43.433 -40.772 44.657 -42.02 46.193 -42.02 C 47.705 -42.02 48.929 -40.772 48.929 -39.26 C 48.929 -37.748 47.705 -36.524 46.193 -36.524 C 44.657 -36.524 43.433 -37.748 43.433 -39.26 Z M 44.489 -39.26 C 44.489 -38.396 45.281 -37.556 46.193 -37.556 C 47.081 -37.556 47.873 -38.372 47.873 -39.26 C 47.873 -40.148 47.081 -40.94 46.193 -40.94 C 45.281 -40.94 44.489 -40.148 44.489 -39.26 Z M 211.433 -39.26 C 211.433 -40.772 212.657 -42.02 214.193 -42.02 C 215.705 -42.02 216.929 -40.772 216.929 -39.26 C 216.929 -37.748 215.705 -36.524 214.193 -36.524 C 212.657 -36.524 211.433 -37.748 211.433 -39.26 Z M 212.489 -39.26 C 212.489 -38.396 213.281 -37.556 214.193 -37.556 C 215.081 -37.556 215.873 -38.372 215.873 -39.26 C 215.873 -40.148 215.081 -40.94 214.193 -40.94 C 213.281 -40.94 212.489 -40.148 212.489 -39.26 Z M 390.833 -33.956 C 392.225 -33.956 393.377 -32.804 393.377 -31.412 C 393.377 -29.996 392.225 -28.844 390.833 -28.844 C 389.417 -28.844 388.265 -29.996 388.265 -31.412 C 388.265 -32.804 389.417 -33.956 390.833 -33.956 Z M 1141.022 -33.488 C 1140.302 -33.488 1139.722 -33.712 1139.282 -34.16 C 1138.842 -34.616 1138.622 -35.192 1138.622 -35.888 C 1138.622 -36.592 1138.842 -37.168 1139.282 -37.616 C 1139.722 -38.064 1140.302 -38.288 1141.022 -38.288 C 1141.732 -38.288 1142.302 -38.064 1142.742 -37.616 C 1143.192 -37.168 1143.422 -36.592 1143.422 -35.888 C 1143.422 -35.192 1143.192 -34.616 1142.742 -34.16 C 1142.302 -33.712 1141.732 -33.488 1141.022 -33.488 Z M 1141.022 -34.472 C 1141.442 -34.472 1141.782 -34.604 1142.022 -34.868 C 1142.282 -35.14 1142.412 -35.48 1142.412 -35.888 C 1142.412 -36.304 1142.282 -36.644 1142.022 -36.908 C 1141.782 -37.18 1141.442 -37.316 1141.022 -37.316 C 1140.602 -37.316 1140.262 -37.18 1140.002 -36.908 C 1139.742 -36.644 1139.612 -36.304 1139.612 -35.888 C 1139.612 -35.48 1139.742 -35.14 1140.002 -34.868 C 1140.262 -34.604 1140.602 -34.472 1141.022 -34.472 Z M 198.546 7.612 C 198.346 7.612 198.246 7.504 198.246 7.288 L 198.246 3.472 C 198.246 3.256 198.346 3.148 198.546 3.148 L 202.386 3.148 C 202.586 3.148 202.686 3.256 202.686 3.472 L 202.686 7.288 C 202.686 7.504 202.586 7.612 202.386 7.612 L 198.546 7.612 Z M -174.341 26.512 C -175.053 26.512 -175.633 26.288 -176.081 25.84 C -176.521 25.384 -176.741 24.808 -176.741 24.112 C -176.741 23.408 -176.521 22.832 -176.081 22.384 C -175.633 21.936 -175.053 21.712 -174.341 21.712 C -173.629 21.712 -173.053 21.936 -172.613 22.384 C -172.165 22.832 -171.941 23.408 -171.941 24.112 C -171.941 24.808 -172.165 25.384 -172.613 25.84 C -173.053 26.288 -173.629 26.512 -174.341 26.512 Z M -174.341 25.528 C -173.917 25.528 -173.581 25.396 -173.333 25.132 C -173.077 24.86 -172.949 24.52 -172.949 24.112 C -172.949 23.696 -173.077 23.356 -173.333 23.092 C -173.581 22.82 -173.917 22.684 -174.341 22.684 C -174.757 22.684 -175.097 22.82 -175.361 23.092 C -175.617 23.356 -175.746 23.696 -175.746 24.112 C -175.746 24.52 -175.617 24.86 -175.361 25.132 C -175.097 25.396 -174.757 25.528 -174.341 25.528 Z M 121.624 37.612 C 121.424 37.612 121.324 37.504 121.324 37.288 L 121.324 33.472 C 121.324 33.256 121.424 33.148 121.624 33.148 L 125.464 33.148 C 125.664 33.148 125.764 33.256 125.764 33.472 L 125.764 37.288 C 125.764 37.504 125.664 37.612 125.464 37.612 L 121.624 37.612 Z M 272.131 33.496 C 271.827 33.496 271.675 33.332 271.675 33.004 L 271.675 27.268 C 271.675 26.948 271.827 26.788 272.131 26.788 L 277.903 26.788 C 278.199 26.788 278.347 26.948 278.347 27.268 L 278.347 33.004 C 278.347 33.332 278.199 33.496 277.903 33.496 L 272.131 33.496 Z M 574.041 26.512 C 573.329 26.512 572.749 26.288 572.301 25.84 C 571.861 25.384 571.641 24.808 571.641 24.112 C 571.641 23.408 571.861 22.832 572.301 22.384 C 572.749 21.936 573.329 21.712 574.041 21.712 C 574.753 21.712 575.329 21.936 575.769 22.384 C 576.217 22.832 576.441 23.408 576.441 24.112 C 576.441 24.808 576.217 25.384 575.769 25.84 C 575.329 26.288 574.753 26.512 574.041 26.512 Z M 574.041 25.528 C 574.465 25.528 574.801 25.396 575.049 25.132 C 575.305 24.86 575.433 24.52 575.433 24.112 C 575.433 23.696 575.305 23.356 575.049 23.092 C 574.801 22.82 574.465 22.684 574.041 22.684 C 573.625 22.684 573.285 22.82 573.021 23.092 C 572.765 23.356 572.637 23.696 572.637 24.112 C 572.637 24.52 572.765 24.86 573.021 25.132 C 573.285 25.396 573.625 25.528 574.041 25.528 Z M 870.002 37.696 C 869.802 37.696 869.702 37.588 869.702 37.372 L 869.702 33.556 C 869.702 33.34 869.802 33.232 870.002 33.232 L 873.842 33.232 C 874.042 33.232 874.142 33.34 874.142 33.556 L 874.142 37.372 C 874.142 37.588 874.042 37.696 873.842 37.696 L 870.002 37.696 Z M 870.002 29.416 C 869.802 29.416 869.702 29.308 869.702 29.092 L 869.702 25.276 C 869.702 25.06 869.802 24.952 870.002 24.952 L 873.842 24.952 C 874.042 24.952 874.142 25.06 874.142 25.276 L 874.142 29.092 C 874.142 29.308 874.042 29.416 873.842 29.416 L 870.002 29.416 Z M 1020.362 37.612 C 1020.162 37.612 1020.062 37.504 1020.062 37.288 L 1020.062 33.472 C 1020.062 33.256 1020.162 33.148 1020.362 33.148 L 1024.202 33.148 C 1024.402 33.148 1024.502 33.256 1024.502 33.472 L 1024.502 37.288 C 1024.502 37.504 1024.402 37.612 1024.202 37.612 L 1020.362 37.612 Z M 271.854 59.344 L 271.518 59.152 C 271.334 59.056 271.294 58.92 271.398 58.744 L 273.258 55.504 L 269.538 55.504 C 269.338 55.504 269.238 55.404 269.238 55.204 L 269.238 54.808 C 269.238 54.608 269.338 54.508 269.538 54.508 L 273.258 54.508 L 271.398 51.268 C 271.294 51.092 271.334 50.96 271.518 50.872 L 271.854 50.668 C 272.038 50.564 272.178 50.596 272.274 50.764 L 274.134 53.992 L 275.994 50.764 C 276.106 50.596 276.246 50.564 276.414 50.668 L 276.762 50.872 C 276.938 50.952 276.978 51.084 276.882 51.268 L 275.022 54.508 L 278.742 54.508 C 278.942 54.508 279.042 54.608 279.042 54.808 L 279.042 55.204 C 279.042 55.404 278.942 55.504 278.742 55.504 L 275.022 55.504 L 276.882 58.744 C 276.97 58.928 276.93 59.064 276.762 59.152 L 276.414 59.344 C 276.238 59.464 276.098 59.432 275.994 59.248 L 274.134 56.032 L 272.274 59.248 C 272.178 59.432 272.038 59.464 271.854 59.344 Z M 427.429 69.484 L 427.429 66.82 L 424.837 66.82 L 424.837 65.572 L 427.429 65.572 L 427.429 62.908 L 428.677 62.908 L 428.677 65.572 L 431.269 65.572 L 431.269 66.82 L 428.677 66.82 L 428.677 69.484 L 427.429 69.484 Z M -323.718 86.044 C -322.326 86.044 -321.174 87.196 -321.174 88.588 C -321.174 90.004 -322.326 91.156 -323.718 91.156 C -325.134 91.156 -326.286 90.004 -326.286 88.588 C -326.286 87.196 -325.134 86.044 -323.718 86.044 Z M -167.118 80.74 C -167.118 79.228 -165.894 77.98 -164.358 77.98 C -162.846 77.98 -161.622 79.228 -161.622 80.74 C -161.622 82.252 -162.846 83.476 -164.358 83.476 C -165.894 83.476 -167.118 82.252 -167.118 80.74 Z M -166.062 80.74 C -166.062 81.604 -165.27 82.444 -164.358 82.444 C -163.47 82.444 -162.678 81.628 -162.678 80.74 C -162.678 79.852 -163.47 79.06 -164.358 79.06 C -165.27 79.06 -166.062 79.852 -166.062 80.74 Z M 0.882 80.74 C 0.882 79.228 2.106 77.98 3.642 77.98 C 5.154 77.98 6.378 79.228 6.378 80.74 C 6.378 82.252 5.154 83.476 3.642 83.476 C 2.106 83.476 0.882 82.252 0.882 80.74 Z M 1.938 80.74 C 1.938 81.604 2.73 82.444 3.642 82.444 C 4.53 82.444 5.322 81.628 5.322 80.74 C 5.322 79.852 4.53 79.06 3.642 79.06 C 2.73 79.06 1.938 79.852 1.938 80.74 Z M 180.282 86.044 C 181.674 86.044 182.826 87.196 182.826 88.588 C 182.826 90.004 181.674 91.156 180.282 91.156 C 178.866 91.156 177.714 90.004 177.714 88.588 C 177.714 87.196 178.866 86.044 180.282 86.044 Z M 342.018 97.636 C 340.986 97.636 340.098 96.844 340.098 95.74 C 340.098 94.66 340.986 93.868 342.018 93.868 C 343.026 93.868 343.914 94.66 343.914 95.74 C 343.914 96.844 343.026 97.636 342.018 97.636 Z M 504.882 80.74 C 504.882 79.228 506.106 77.98 507.642 77.98 C 509.154 77.98 510.378 79.228 510.378 80.74 C 510.378 82.252 509.154 83.476 507.642 83.476 C 506.106 83.476 504.882 82.252 504.882 80.74 Z M 505.938 80.74 C 505.938 81.604 506.73 82.444 507.642 82.444 C 508.53 82.444 509.322 81.628 509.322 80.74 C 509.322 79.852 508.53 79.06 507.642 79.06 C 506.73 79.06 505.938 79.852 505.938 80.74 Z M 820.702 80.74 C 820.702 79.228 821.922 77.98 823.462 77.98 C 824.972 77.98 826.202 79.228 826.202 80.74 C 826.202 82.252 824.972 83.476 823.462 83.476 C 821.922 83.476 820.702 82.252 820.702 80.74 Z M 821.762 80.74 C 821.762 81.604 822.552 82.444 823.462 82.444 C 824.352 82.444 825.142 81.628 825.142 80.74 C 825.142 79.852 824.352 79.06 823.462 79.06 C 822.552 79.06 821.762 79.852 821.762 80.74 Z M 1000.102 86.044 C 1001.492 86.044 1002.642 87.196 1002.642 88.588 C 1002.642 90.004 1001.492 91.156 1000.102 91.156 C 998.682 91.156 997.532 90.004 997.532 88.588 C 997.532 87.196 998.682 86.044 1000.102 86.044 Z M -299.548 127.612 C -299.748 127.612 -299.848 127.504 -299.848 127.288 L -299.848 123.472 C -299.848 123.256 -299.748 123.148 -299.548 123.148 L -295.708 123.148 C -295.508 123.148 -295.408 123.256 -295.408 123.472 L -295.408 127.288 C -295.408 127.504 -295.508 127.612 -295.708 127.612 L -299.548 127.612 Z M -138.456 116.044 C -137.064 116.044 -135.912 117.196 -135.912 118.588 C -135.912 120.004 -137.064 121.156 -138.456 121.156 C -139.872 121.156 -141.024 120.004 -141.024 118.588 C -141.024 117.196 -139.872 116.044 -138.456 116.044 Z M 18.144 110.74 C 18.144 109.228 19.368 107.98 20.904 107.98 C 22.416 107.98 23.64 109.228 23.64 110.74 C 23.64 112.252 22.416 113.476 20.904 113.476 C 19.368 113.476 18.144 112.252 18.144 110.74 Z M 19.2 110.74 C 19.2 111.604 19.992 112.444 20.904 112.444 C 21.792 112.444 22.584 111.628 22.584 110.74 C 22.584 109.852 21.792 109.06 20.904 109.06 C 19.992 109.06 19.2 109.852 19.2 110.74 Z M 186.144 110.74 C 186.144 109.228 187.368 107.98 188.904 107.98 C 190.416 107.98 191.64 109.228 191.64 110.74 C 191.64 112.252 190.416 113.476 188.904 113.476 C 187.368 113.476 186.144 112.252 186.144 110.74 Z M 187.2 110.74 C 187.2 111.604 187.992 112.444 188.904 112.444 C 189.792 112.444 190.584 111.628 190.584 110.74 C 190.584 109.852 189.792 109.06 188.904 109.06 C 187.992 109.06 187.2 109.852 187.2 110.74 Z M 365.544 116.044 C 366.936 116.044 368.088 117.196 368.088 118.588 C 368.088 120.004 366.936 121.156 365.544 121.156 C 364.128 121.156 362.976 120.004 362.976 118.588 C 362.976 117.196 364.128 116.044 365.544 116.044 Z M 840.942 119.344 L 840.602 119.152 C 840.422 119.056 840.382 118.92 840.482 118.744 L 842.342 115.504 L 838.622 115.504 C 838.422 115.504 838.322 115.404 838.322 115.204 L 838.322 114.808 C 838.322 114.608 838.422 114.508 838.622 114.508 L 842.342 114.508 L 840.482 111.268 C 840.382 111.092 840.422 110.96 840.602 110.872 L 840.942 110.668 C 841.122 110.564 841.262 110.596 841.362 110.764 L 843.222 113.992 L 845.082 110.764 C 845.192 110.596 845.332 110.564 845.502 110.668 L 845.852 110.872 C 846.022 110.952 846.062 111.084 845.972 111.268 L 844.112 114.508 L 847.832 114.508 C 848.032 114.508 848.132 114.608 848.132 114.808 L 848.132 115.204 C 848.132 115.404 848.032 115.504 847.832 115.504 L 844.112 115.504 L 845.972 118.744 C 846.052 118.928 846.012 119.064 845.852 119.152 L 845.502 119.344 C 845.322 119.464 845.182 119.432 845.082 119.248 L 843.222 116.032 L 841.362 119.248 C 841.262 119.432 841.122 119.464 840.942 119.344 Z M 996.512 129.484 L 996.512 126.82 L 993.922 126.82 L 993.922 125.572 L 996.512 125.572 L 996.512 122.908 L 997.762 122.908 L 997.762 125.572 L 1000.352 125.572 L 1000.352 126.82 L 997.762 126.82 L 997.762 129.484 L 996.512 129.484 Z M -146.9 157.612 C -147.1 157.612 -147.2 157.504 -147.2 157.288 L -147.2 153.472 C -147.2 153.256 -147.1 153.148 -146.9 153.148 L -143.06 153.148 C -142.86 153.148 -142.76 153.256 -142.76 153.472 L -142.76 157.288 C -142.76 157.504 -142.86 157.612 -143.06 157.612 L -146.9 157.612 Z M 3.452 157.612 C 3.252 157.612 3.152 157.504 3.152 157.288 L 3.152 153.472 C 3.152 153.256 3.252 153.148 3.452 153.148 L 7.292 153.148 C 7.492 153.148 7.592 153.256 7.592 153.472 L 7.592 157.288 C 7.592 157.504 7.492 157.612 7.292 157.612 L 3.452 157.612 Z M 332.544 146.044 C 333.936 146.044 335.088 147.196 335.088 148.588 C 335.088 150.004 333.936 151.156 332.544 151.156 C 331.128 151.156 329.976 150.004 329.976 148.588 C 329.976 147.196 331.128 146.044 332.544 146.044 Z M 489.144 140.74 C 489.144 139.228 490.368 137.98 491.904 137.98 C 493.416 137.98 494.64 139.228 494.64 140.74 C 494.64 142.252 493.416 143.476 491.904 143.476 C 490.368 143.476 489.144 142.252 489.144 140.74 Z M 490.2 140.74 C 490.2 141.604 490.992 142.444 491.904 142.444 C 492.792 142.444 493.584 141.628 493.584 140.74 C 493.584 139.852 492.792 139.06 491.904 139.06 C 490.992 139.06 490.2 139.852 490.2 140.74 Z M 657.144 140.74 C 657.144 139.228 658.368 137.98 659.904 137.98 C 661.416 137.98 662.64 139.228 662.64 140.74 C 662.64 142.252 661.416 143.476 659.904 143.476 C 658.368 143.476 657.144 142.252 657.144 140.74 Z M 658.2 140.74 C 658.2 141.604 658.992 142.444 659.904 142.444 C 660.792 142.444 661.584 141.628 661.584 140.74 C 661.584 139.852 660.792 139.06 659.904 139.06 C 658.992 139.06 658.2 139.852 658.2 140.74 Z M 836.542 146.044 C 837.932 146.044 839.092 147.196 839.092 148.588 C 839.092 150.004 837.932 151.156 836.542 151.156 C 835.132 151.156 833.972 150.004 833.972 148.588 C 833.972 147.196 835.132 146.044 836.542 146.044 Z M 51.385 176.512 C 50.673 176.512 50.093 176.288 49.645 175.84 C 49.205 175.384 48.985 174.808 48.985 174.112 C 48.985 173.408 49.205 172.832 49.645 172.384 C 50.093 171.936 50.673 171.712 51.385 171.712 C 52.097 171.712 52.673 171.936 53.113 172.384 C 53.561 172.832 53.785 173.408 53.785 174.112 C 53.785 174.808 53.561 175.384 53.113 175.84 C 52.673 176.288 52.097 176.512 51.385 176.512 Z M 51.385 175.528 C 51.809 175.528 52.145 175.396 52.393 175.132 C 52.649 174.86 52.777 174.52 52.777 174.112 C 52.777 173.696 52.649 173.356 52.393 173.092 C 52.145 172.82 51.809 172.684 51.385 172.684 C 50.969 172.684 50.629 172.82 50.365 173.092 C 50.109 173.356 49.981 173.696 49.981 174.112 C 49.981 174.52 50.109 174.86 50.365 175.132 C 50.629 175.396 50.969 175.528 51.385 175.528 Z M 347.35 187.612 C 347.15 187.612 347.05 187.504 347.05 187.288 L 347.05 183.472 C 347.05 183.256 347.15 183.148 347.35 183.148 L 351.19 183.148 C 351.39 183.148 351.49 183.256 351.49 183.472 L 351.49 187.288 C 351.49 187.504 351.39 187.612 351.19 187.612 L 347.35 187.612 Z M -250.396 206.512 C -251.108 206.512 -251.688 206.288 -252.136 205.84 C -252.576 205.384 -252.796 204.808 -252.796 204.112 C -252.796 203.408 -252.576 202.832 -252.136 202.384 C -251.688 201.936 -251.108 201.712 -250.396 201.712 C -249.684 201.712 -249.108 201.936 -248.668 202.384 C -248.22 202.832 -247.996 203.408 -247.996 204.112 C -247.996 204.808 -248.22 205.384 -248.668 205.84 C -249.108 206.288 -249.684 206.512 -250.396 206.512 Z M -250.396 205.528 C -249.972 205.528 -249.636 205.396 -249.388 205.132 C -249.132 204.86 -249.004 204.52 -249.004 204.112 C -249.004 203.696 -249.132 203.356 -249.388 203.092 C -249.636 202.82 -249.972 202.684 -250.396 202.684 C -250.812 202.684 -251.152 202.82 -251.416 203.092 C -251.672 203.356 -251.8 203.696 -251.8 204.112 C -251.8 204.52 -251.672 204.86 -251.416 205.132 C -251.152 205.396 -250.812 205.528 -250.396 205.528 Z M 45.569 217.612 C 45.369 217.612 45.269 217.504 45.269 217.288 L 45.269 213.472 C 45.269 213.256 45.369 213.148 45.569 213.148 L 49.409 213.148 C 49.609 213.148 49.709 213.256 49.709 213.472 L 49.709 217.288 C 49.709 217.504 49.609 217.612 49.409 217.612 L 45.569 217.612 Z M 196.077 213.496 C 195.773 213.496 195.621 213.332 195.621 213.004 L 195.621 207.268 C 195.621 206.948 195.773 206.788 196.077 206.788 L 201.849 206.788 C 202.145 206.788 202.293 206.948 202.293 207.268 L 202.293 213.004 C 202.293 213.332 202.145 213.496 201.849 213.496 L 196.077 213.496 Z M 497.987 206.512 C 497.275 206.512 496.695 206.288 496.247 205.84 C 495.807 205.384 495.587 204.808 495.587 204.112 C 495.587 203.408 495.807 202.832 496.247 202.384 C 496.695 201.936 497.275 201.712 497.987 201.712 C 498.699 201.712 499.275 201.936 499.715 202.384 C 500.163 202.832 500.387 203.408 500.387 204.112 C 500.387 204.808 500.163 205.384 499.715 205.84 C 499.275 206.288 498.699 206.512 497.987 206.512 Z M 497.987 205.528 C 498.411 205.528 498.747 205.396 498.995 205.132 C 499.251 204.86 499.379 204.52 499.379 204.112 C 499.379 203.696 499.251 203.356 498.995 203.092 C 498.747 202.82 498.411 202.684 497.987 202.684 C 497.571 202.684 497.231 202.82 496.967 203.092 C 496.711 203.356 496.583 203.696 496.583 204.112 C 496.583 204.52 496.711 204.86 496.967 205.132 C 497.231 205.396 497.571 205.528 497.987 205.528 Z M 646.132 217.696 C 645.932 217.696 645.832 217.588 645.832 217.372 L 645.832 213.556 C 645.832 213.34 645.932 213.232 646.132 213.232 L 649.972 213.232 C 650.172 213.232 650.272 213.34 650.272 213.556 L 650.272 217.372 C 650.272 217.588 650.172 217.696 649.972 217.696 L 646.132 217.696 Z M 646.132 209.416 C 645.932 209.416 645.832 209.308 645.832 209.092 L 645.832 205.276 C 645.832 205.06 645.932 204.952 646.132 204.952 L 649.972 204.952 C 650.172 204.952 650.272 205.06 650.272 205.276 L 650.272 209.092 C 650.272 209.308 650.172 209.416 649.972 209.416 L 646.132 209.416 Z M 796.482 217.612 C 796.282 217.612 796.182 217.504 796.182 217.288 L 796.182 213.472 C 796.182 213.256 796.282 213.148 796.482 213.148 L 800.322 213.148 C 800.522 213.148 800.622 213.256 800.622 213.472 L 800.622 217.288 C 800.622 217.504 800.522 217.612 800.322 217.612 L 796.482 217.612 Z M 1096.832 219.484 L 1096.832 216.82 L 1094.232 216.82 L 1094.232 215.572 L 1096.832 215.572 L 1096.832 212.908 L 1098.072 212.908 L 1098.072 215.572 L 1100.672 215.572 L 1100.672 216.82 L 1098.072 216.82 L 1098.072 219.484 L 1096.832 219.484 Z M -249.808 236.044 C -248.416 236.044 -247.264 237.196 -247.264 238.588 C -247.264 240.004 -248.416 241.156 -249.808 241.156 C -251.224 241.156 -252.376 240.004 -252.376 238.588 C -252.376 237.196 -251.224 236.044 -249.808 236.044 Z M -93.208 230.74 C -93.208 229.228 -91.984 227.98 -90.448 227.98 C -88.936 227.98 -87.712 229.228 -87.712 230.74 C -87.712 232.252 -88.936 233.476 -90.448 233.476 C -91.984 233.476 -93.208 232.252 -93.208 230.74 Z M -92.152 230.74 C -92.152 231.604 -91.36 232.444 -90.448 232.444 C -89.56 232.444 -88.768 231.628 -88.768 230.74 C -88.768 229.852 -89.56 229.06 -90.448 229.06 C -91.36 229.06 -92.152 229.852 -92.152 230.74 Z M 74.792 230.74 C 74.792 229.228 76.016 227.98 77.552 227.98 C 79.064 227.98 80.288 229.228 80.288 230.74 C 80.288 232.252 79.064 233.476 77.552 233.476 C 76.016 233.476 74.792 232.252 74.792 230.74 Z M 75.848 230.74 C 75.848 231.604 76.64 232.444 77.552 232.444 C 78.44 232.444 79.232 231.628 79.232 230.74 C 79.232 229.852 78.44 229.06 77.552 229.06 C 76.64 229.06 75.848 229.852 75.848 230.74 Z M 254.192 236.044 C 255.584 236.044 256.736 237.196 256.736 238.588 C 256.736 240.004 255.584 241.156 254.192 241.156 C 252.776 241.156 251.624 240.004 251.624 238.588 C 251.624 237.196 252.776 236.044 254.192 236.044 Z M 415.928 247.636 C 414.896 247.636 414.008 246.844 414.008 245.74 C 414.008 244.66 414.896 243.868 415.928 243.868 C 416.936 243.868 417.824 244.66 417.824 245.74 C 417.824 246.844 416.936 247.636 415.928 247.636 Z M 578.792 230.74 C 578.792 229.228 580.016 227.98 581.552 227.98 C 583.064 227.98 584.288 229.228 584.288 230.74 C 584.288 232.252 583.064 233.476 581.552 233.476 C 580.016 233.476 578.792 232.252 578.792 230.74 Z M 579.848 230.74 C 579.848 231.604 580.64 232.444 581.552 232.444 C 582.44 232.444 583.232 231.628 583.232 230.74 C 583.232 229.852 582.44 229.06 581.552 229.06 C 580.64 229.06 579.848 229.852 579.848 230.74 Z M 746.792 230.74 C 746.792 229.228 748.012 227.98 749.552 227.98 C 751.062 227.98 752.292 229.228 752.292 230.74 C 752.292 232.252 751.062 233.476 749.552 233.476 C 748.012 233.476 746.792 232.252 746.792 230.74 Z M 747.852 230.74 C 747.852 231.604 748.642 232.444 749.552 232.444 C 750.442 232.444 751.232 231.628 751.232 230.74 C 751.232 229.852 750.442 229.06 749.552 229.06 C 748.642 229.06 747.852 229.852 747.852 230.74 Z M 926.192 236.044 C 927.582 236.044 928.732 237.196 928.732 238.588 C 928.732 240.004 927.582 241.156 926.192 241.156 C 924.772 241.156 923.622 240.004 923.622 238.588 C 923.622 237.196 924.772 236.044 926.192 236.044 Z M -449.9 277.612 C -450.1 277.612 -450.2 277.504 -450.2 277.288 L -450.2 273.472 C -450.2 273.256 -450.1 273.148 -449.9 273.148 L -446.06 273.148 C -445.86 273.148 -445.76 273.256 -445.76 273.472 L -445.76 277.288 C -445.76 277.504 -445.86 277.612 -446.06 277.612 L -449.9 277.612 Z M -299.548 277.612 C -299.748 277.612 -299.848 277.504 -299.848 277.288 L -299.848 273.472 C -299.848 273.256 -299.748 273.148 -299.548 273.148 L -295.708 273.148 C -295.508 273.148 -295.408 273.256 -295.408 273.472 L -295.408 277.288 C -295.408 277.504 -295.508 277.612 -295.708 277.612 L -299.548 277.612 Z M -149.196 277.612 C -149.396 277.612 -149.496 277.504 -149.496 277.288 L -149.496 273.472 C -149.496 273.256 -149.396 273.148 -149.196 273.148 L -145.356 273.148 C -145.156 273.148 -145.056 273.256 -145.056 273.472 L -145.056 277.288 C -145.056 277.504 -145.156 277.612 -145.356 277.612 L -149.196 277.612 Z M 11.895 266.044 C 13.287 266.044 14.439 267.196 14.439 268.588 C 14.439 270.004 13.287 271.156 11.895 271.156 C 10.479 271.156 9.327 270.004 9.327 268.588 C 9.327 267.196 10.479 266.044 11.895 266.044 Z M 168.495 260.74 C 168.495 259.228 169.719 257.98 171.255 257.98 C 172.767 257.98 173.991 259.228 173.991 260.74 C 173.991 262.252 172.767 263.476 171.255 263.476 C 169.719 263.476 168.495 262.252 168.495 260.74 Z M 169.551 260.74 C 169.551 261.604 170.343 262.444 171.255 262.444 C 172.143 262.444 172.935 261.628 172.935 260.74 C 172.935 259.852 172.143 259.06 171.255 259.06 C 170.343 259.06 169.551 259.852 169.551 260.74 Z M 336.495 260.74 C 336.495 259.228 337.719 257.98 339.255 257.98 C 340.767 257.98 341.991 259.228 341.991 260.74 C 341.991 262.252 340.767 263.476 339.255 263.476 C 337.719 263.476 336.495 262.252 336.495 260.74 Z M 337.551 260.74 C 337.551 261.604 338.343 262.444 339.255 262.444 C 340.143 262.444 340.935 261.628 340.935 260.74 C 340.935 259.852 340.143 259.06 339.255 259.06 C 338.343 259.06 337.551 259.852 337.551 260.74 Z M 515.895 266.044 C 517.287 266.044 518.439 267.196 518.439 268.588 C 518.439 270.004 517.287 271.156 515.895 271.156 C 514.479 271.156 513.327 270.004 513.327 268.588 C 513.327 267.196 514.479 266.044 515.895 266.044 Z M 991.292 269.344 L 990.952 269.152 C 990.772 269.056 990.732 268.92 990.832 268.744 L 992.692 265.504 L 988.972 265.504 C 988.772 265.504 988.672 265.404 988.672 265.204 L 988.672 264.808 C 988.672 264.608 988.772 264.508 988.972 264.508 L 992.692 264.508 L 990.832 261.268 C 990.732 261.092 990.772 260.96 990.952 260.872 L 991.292 260.668 C 991.472 260.564 991.612 260.596 991.712 260.764 L 993.572 263.992 L 995.432 260.764 C 995.542 260.596 995.682 260.564 995.852 260.668 L 996.202 260.872 C 996.372 260.952 996.412 261.084 996.322 261.268 L 994.462 264.508 L 998.182 264.508 C 998.382 264.508 998.482 264.608 998.482 264.808 L 998.482 265.204 C 998.482 265.404 998.382 265.504 998.182 265.504 L 994.462 265.504 L 996.322 268.744 C 996.412 268.928 996.372 269.064 996.202 269.152 L 995.852 269.344 C 995.672 269.464 995.532 269.432 995.432 269.248 L 993.572 266.032 L 991.712 269.248 C 991.612 269.432 991.472 269.464 991.292 269.344 Z M 1146.862 279.484 L 1146.862 276.82 L 1144.272 276.82 L 1144.272 275.572 L 1146.862 275.572 L 1146.862 272.908 L 1148.112 272.908 L 1148.112 275.572 L 1150.702 275.572 L 1150.702 276.82 L 1148.112 276.82 L 1148.112 279.484 L 1146.862 279.484 Z M -442.259 307.612 C -442.459 307.612 -442.559 307.504 -442.559 307.288 L -442.559 303.472 C -442.559 303.256 -442.459 303.148 -442.259 303.148 L -438.419 303.148 C -438.219 303.148 -438.119 303.256 -438.119 303.472 L -438.119 307.288 C -438.119 307.504 -438.219 307.612 -438.419 307.612 L -442.259 307.612 Z M -113.167 296.044 C -111.775 296.044 -110.623 297.196 -110.623 298.588 C -110.623 300.004 -111.775 301.156 -113.167 301.156 C -114.583 301.156 -115.735 300.004 -115.735 298.588 C -115.735 297.196 -114.583 296.044 -113.167 296.044 Z M 43.433 290.74 C 43.433 289.228 44.657 287.98 46.193 287.98 C 47.705 287.98 48.929 289.228 48.929 290.74 C 48.929 292.252 47.705 293.476 46.193 293.476 C 44.657 293.476 43.433 292.252 43.433 290.74 Z M 44.489 290.74 C 44.489 291.604 45.281 292.444 46.193 292.444 C 47.081 292.444 47.873 291.628 47.873 290.74 C 47.873 289.852 47.081 289.06 46.193 289.06 C 45.281 289.06 44.489 289.852 44.489 290.74 Z M 211.433 290.74 C 211.433 289.228 212.657 287.98 214.193 287.98 C 215.705 287.98 216.929 289.228 216.929 290.74 C 216.929 292.252 215.705 293.476 214.193 293.476 C 212.657 293.476 211.433 292.252 211.433 290.74 Z M 212.489 290.74 C 212.489 291.604 213.281 292.444 214.193 292.444 C 215.081 292.444 215.873 291.628 215.873 290.74 C 215.873 289.852 215.081 289.06 214.193 289.06 C 213.281 289.06 212.489 289.852 212.489 290.74 Z M 390.833 296.044 C 392.225 296.044 393.377 297.196 393.377 298.588 C 393.377 300.004 392.225 301.156 390.833 301.156 C 389.417 301.156 388.265 300.004 388.265 298.588 C 388.265 297.196 389.417 296.044 390.833 296.044 Z M 1141.022 296.512 C 1140.302 296.512 1139.722 296.288 1139.282 295.84 C 1138.842 295.384 1138.622 294.808 1138.622 294.112 C 1138.622 293.408 1138.842 292.832 1139.282 292.384 C 1139.722 291.936 1140.302 291.712 1141.022 291.712 C 1141.732 291.712 1142.302 291.936 1142.742 292.384 C 1143.192 292.832 1143.422 293.408 1143.422 294.112 C 1143.422 294.808 1143.192 295.384 1142.742 295.84 C 1142.302 296.288 1141.732 296.512 1141.022 296.512 Z M 1141.022 295.528 C 1141.442 295.528 1141.782 295.396 1142.022 295.132 C 1142.282 294.86 1142.412 294.52 1142.412 294.112 C 1142.412 293.696 1142.282 293.356 1142.022 293.092 C 1141.782 292.82 1141.442 292.684 1141.022 292.684 C 1140.602 292.684 1140.262 292.82 1140.002 293.092 C 1139.742 293.356 1139.612 293.696 1139.612 294.112 C 1139.612 294.52 1139.742 294.86 1140.002 295.132 C 1140.262 295.396 1140.602 295.528 1141.022 295.528 Z M 198.546 337.612 C 198.346 337.612 198.246 337.504 198.246 337.288 L 198.246 333.472 C 198.246 333.256 198.346 333.148 198.546 333.148 L 202.386 333.148 C 202.586 333.148 202.686 333.256 202.686 333.472 L 202.686 337.288 C 202.686 337.504 202.586 337.612 202.386 337.612 L 198.546 337.612 Z M -250.396 356.512 C -251.108 356.512 -251.688 356.288 -252.136 355.84 C -252.576 355.384 -252.796 354.808 -252.796 354.112 C -252.796 353.408 -252.576 352.832 -252.136 352.384 C -251.688 351.936 -251.108 351.712 -250.396 351.712 C -249.684 351.712 -249.108 351.936 -248.668 352.384 C -248.22 352.832 -247.996 353.408 -247.996 354.112 C -247.996 354.808 -248.22 355.384 -248.668 355.84 C -249.108 356.288 -249.684 356.512 -250.396 356.512 Z M -250.396 355.528 C -249.972 355.528 -249.636 355.396 -249.388 355.132 C -249.132 354.86 -249.004 354.52 -249.004 354.112 C -249.004 353.696 -249.132 353.356 -249.388 353.092 C -249.636 352.82 -249.972 352.684 -250.396 352.684 C -250.812 352.684 -251.152 352.82 -251.416 353.092 C -251.672 353.356 -251.8 353.696 -251.8 354.112 C -251.8 354.52 -251.672 354.86 -251.416 355.132 C -251.152 355.396 -250.812 355.528 -250.396 355.528 Z M 45.569 367.612 C 45.369 367.612 45.269 367.504 45.269 367.288 L 45.269 363.472 C 45.269 363.256 45.369 363.148 45.569 363.148 L 49.409 363.148 C 49.609 363.148 49.709 363.256 49.709 363.472 L 49.709 367.288 C 49.709 367.504 49.609 367.612 49.409 367.612 L 45.569 367.612 Z M 196.077 363.496 C 195.773 363.496 195.621 363.332 195.621 363.004 L 195.621 357.268 C 195.621 356.948 195.773 356.788 196.077 356.788 L 201.849 356.788 C 202.145 356.788 202.293 356.948 202.293 357.268 L 202.293 363.004 C 202.293 363.332 202.145 363.496 201.849 363.496 L 196.077 363.496 Z M 497.987 356.512 C 497.275 356.512 496.695 356.288 496.247 355.84 C 495.807 355.384 495.587 354.808 495.587 354.112 C 495.587 353.408 495.807 352.832 496.247 352.384 C 496.695 351.936 497.275 351.712 497.987 351.712 C 498.699 351.712 499.275 351.936 499.715 352.384 C 500.163 352.832 500.387 353.408 500.387 354.112 C 500.387 354.808 500.163 355.384 499.715 355.84 C 499.275 356.288 498.699 356.512 497.987 356.512 Z M 497.987 355.528 C 498.411 355.528 498.747 355.396 498.995 355.132 C 499.251 354.86 499.379 354.52 499.379 354.112 C 499.379 353.696 499.251 353.356 498.995 353.092 C 498.747 352.82 498.411 352.684 497.987 352.684 C 497.571 352.684 497.231 352.82 496.967 353.092 C 496.711 353.356 496.583 353.696 496.583 354.112 C 496.583 354.52 496.711 354.86 496.967 355.132 C 497.231 355.396 497.571 355.528 497.987 355.528 Z M 646.132 367.696 C 645.932 367.696 645.832 367.588 645.832 367.372 L 645.832 363.556 C 645.832 363.34 645.932 363.232 646.132 363.232 L 649.972 363.232 C 650.172 363.232 650.272 363.34 650.272 363.556 L 650.272 367.372 C 650.272 367.588 650.172 367.696 649.972 367.696 L 646.132 367.696 Z M 646.132 359.416 C 645.932 359.416 645.832 359.308 645.832 359.092 L 645.832 355.276 C 645.832 355.06 645.932 354.952 646.132 354.952 L 649.972 354.952 C 650.172 354.952 650.272 355.06 650.272 355.276 L 650.272 359.092 C 650.272 359.308 650.172 359.416 649.972 359.416 L 646.132 359.416 Z M 796.482 367.612 C 796.282 367.612 796.182 367.504 796.182 367.288 L 796.182 363.472 C 796.182 363.256 796.282 363.148 796.482 363.148 L 800.322 363.148 C 800.522 363.148 800.622 363.256 800.622 363.472 L 800.622 367.288 C 800.622 367.504 800.522 367.612 800.322 367.612 L 796.482 367.612 Z M 1096.832 369.484 L 1096.832 366.82 L 1094.232 366.82 L 1094.232 365.572 L 1096.832 365.572 L 1096.832 362.908 L 1098.072 362.908 L 1098.072 365.572 L 1100.672 365.572 L 1100.672 366.82 L 1098.072 366.82 L 1098.072 369.484 L 1096.832 369.484 Z M -249.808 386.044 C -248.416 386.044 -247.264 387.196 -247.264 388.588 C -247.264 390.004 -248.416 391.156 -249.808 391.156 C -251.224 391.156 -252.376 390.004 -252.376 388.588 C -252.376 387.196 -251.224 386.044 -249.808 386.044 Z M -93.208 380.74 C -93.208 379.228 -91.984 377.98 -90.448 377.98 C -88.936 377.98 -87.712 379.228 -87.712 380.74 C -87.712 382.252 -88.936 383.476 -90.448 383.476 C -91.984 383.476 -93.208 382.252 -93.208 380.74 Z M -92.152 380.74 C -92.152 381.604 -91.36 382.444 -90.448 382.444 C -89.56 382.444 -88.768 381.628 -88.768 380.74 C -88.768 379.852 -89.56 379.06 -90.448 379.06 C -91.36 379.06 -92.152 379.852 -92.152 380.74 Z M 74.792 380.74 C 74.792 379.228 76.016 377.98 77.552 377.98 C 79.064 377.98 80.288 379.228 80.288 380.74 C 80.288 382.252 79.064 383.476 77.552 383.476 C 76.016 383.476 74.792 382.252 74.792 380.74 Z M 75.848 380.74 C 75.848 381.604 76.64 382.444 77.552 382.444 C 78.44 382.444 79.232 381.628 79.232 380.74 C 79.232 379.852 78.44 379.06 77.552 379.06 C 76.64 379.06 75.848 379.852 75.848 380.74 Z M 254.192 386.044 C 255.584 386.044 256.736 387.196 256.736 388.588 C 256.736 390.004 255.584 391.156 254.192 391.156 C 252.776 391.156 251.624 390.004 251.624 388.588 C 251.624 387.196 252.776 386.044 254.192 386.044 Z M 415.928 397.636 C 414.896 397.636 414.008 396.844 414.008 395.74 C 414.008 394.66 414.896 393.868 415.928 393.868 C 416.936 393.868 417.824 394.66 417.824 395.74 C 417.824 396.844 416.936 397.636 415.928 397.636 Z M 578.792 380.74 C 578.792 379.228 580.016 377.98 581.552 377.98 C 583.064 377.98 584.288 379.228 584.288 380.74 C 584.288 382.252 583.064 383.476 581.552 383.476 C 580.016 383.476 578.792 382.252 578.792 380.74 Z M 579.848 380.74 C 579.848 381.604 580.64 382.444 581.552 382.444 C 582.44 382.444 583.232 381.628 583.232 380.74 C 583.232 379.852 582.44 379.06 581.552 379.06 C 580.64 379.06 579.848 379.852 579.848 380.74 Z M 746.792 380.74 C 746.792 379.228 748.012 377.98 749.552 377.98 C 751.062 377.98 752.292 379.228 752.292 380.74 C 752.292 382.252 751.062 383.476 749.552 383.476 C 748.012 383.476 746.792 382.252 746.792 380.74 Z M 747.852 380.74 C 747.852 381.604 748.642 382.444 749.552 382.444 C 750.442 382.444 751.232 381.628 751.232 380.74 C 751.232 379.852 750.442 379.06 749.552 379.06 C 748.642 379.06 747.852 379.852 747.852 380.74 Z M 926.192 386.044 C 927.582 386.044 928.732 387.196 928.732 388.588 C 928.732 390.004 927.582 391.156 926.192 391.156 C 924.772 391.156 923.622 390.004 923.622 388.588 C 923.622 387.196 924.772 386.044 926.192 386.044 Z M -480.984 416.044 C -479.592 416.044 -478.44 417.196 -478.44 418.588 C -478.44 420.004 -479.592 421.156 -480.984 421.156 C -482.4 421.156 -483.552 420.004 -483.552 418.588 C -483.552 417.196 -482.4 416.044 -480.984 416.044 Z M -324.383 410.74 C -324.383 409.228 -323.159 407.98 -321.623 407.98 C -320.111 407.98 -318.887 409.228 -318.887 410.74 C -318.887 412.252 -320.111 413.476 -321.623 413.476 C -323.159 413.476 -324.383 412.252 -324.383 410.74 Z M -323.327 410.74 C -323.327 411.604 -322.535 412.444 -321.623 412.444 C -320.735 412.444 -319.943 411.628 -319.943 410.74 C -319.943 409.852 -320.735 409.06 -321.623 409.06 C -322.535 409.06 -323.327 409.852 -323.327 410.74 Z M -156.384 410.74 C -156.384 409.228 -155.16 407.98 -153.624 407.98 C -152.112 407.98 -150.888 409.228 -150.888 410.74 C -150.888 412.252 -152.112 413.476 -153.624 413.476 C -155.16 413.476 -156.384 412.252 -156.384 410.74 Z M -155.328 410.74 C -155.328 411.604 -154.536 412.444 -153.624 412.444 C -152.736 412.444 -151.944 411.628 -151.944 410.74 C -151.944 409.852 -152.736 409.06 -153.624 409.06 C -154.536 409.06 -155.328 409.852 -155.328 410.74 Z M 23.016 416.044 C 24.408 416.044 25.56 417.196 25.56 418.588 C 25.56 420.004 24.408 421.156 23.016 421.156 C 21.6 421.156 20.448 420.004 20.448 418.588 C 20.448 417.196 21.6 416.044 23.016 416.044 Z M 527.016 416.044 C 528.408 416.044 529.56 417.196 529.56 418.588 C 529.56 420.004 528.408 421.156 527.016 421.156 C 525.6 421.156 524.448 420.004 524.448 418.588 C 524.448 417.196 525.6 416.044 527.016 416.044 Z M 683.612 410.74 C 683.612 409.228 684.842 407.98 686.372 407.98 C 687.892 407.98 689.112 409.228 689.112 410.74 C 689.112 412.252 687.892 413.476 686.372 413.476 C 684.842 413.476 683.612 412.252 683.612 410.74 Z M 684.672 410.74 C 684.672 411.604 685.462 412.444 686.372 412.444 C 687.262 412.444 688.052 411.628 688.052 410.74 C 688.052 409.852 687.262 409.06 686.372 409.06 C 685.462 409.06 684.672 409.852 684.672 410.74 Z M 851.612 410.74 C 851.612 409.228 852.842 407.98 854.372 407.98 C 855.892 407.98 857.112 409.228 857.112 410.74 C 857.112 412.252 855.892 413.476 854.372 413.476 C 852.842 413.476 851.612 412.252 851.612 410.74 Z M 852.672 410.74 C 852.672 411.604 853.462 412.444 854.372 412.444 C 855.262 412.444 856.052 411.628 856.052 410.74 C 856.052 409.852 855.262 409.06 854.372 409.06 C 853.462 409.06 852.672 409.852 852.672 410.74 Z M 1031.012 416.044 C 1032.412 416.044 1033.562 417.196 1033.562 418.588 C 1033.562 420.004 1032.412 421.156 1031.012 421.156 C 1029.602 421.156 1028.452 420.004 1028.452 418.588 C 1028.452 417.196 1029.602 416.044 1031.012 416.044 Z M 1188.272 427.612 C 1188.072 427.612 1187.972 427.504 1187.972 427.288 L 1187.972 423.472 C 1187.972 423.256 1188.072 423.148 1188.272 423.148 L 1192.112 423.148 C 1192.312 423.148 1192.412 423.256 1192.412 423.472 L 1192.412 427.288 C 1192.412 427.504 1192.312 427.612 1192.112 427.612 L 1188.272 427.612 Z M 271.854 449.344 L 271.518 449.152 C 271.334 449.056 271.294 448.92 271.398 448.744 L 273.258 445.504 L 269.538 445.504 C 269.338 445.504 269.238 445.404 269.238 445.204 L 269.238 444.808 C 269.238 444.608 269.338 444.508 269.538 444.508 L 273.258 444.508 L 271.398 441.268 C 271.294 441.092 271.334 440.96 271.518 440.872 L 271.854 440.668 C 272.038 440.564 272.178 440.596 272.274 440.764 L 274.134 443.992 L 275.994 440.764 C 276.106 440.596 276.246 440.564 276.414 440.668 L 276.762 440.872 C 276.938 440.952 276.978 441.084 276.882 441.268 L 275.022 444.508 L 278.742 444.508 C 278.942 444.508 279.042 444.608 279.042 444.808 L 279.042 445.204 C 279.042 445.404 278.942 445.504 278.742 445.504 L 275.022 445.504 L 276.882 448.744 C 276.97 448.928 276.93 449.064 276.762 449.152 L 276.414 449.344 C 276.238 449.464 276.098 449.432 275.994 449.248 L 274.134 446.032 L 272.274 449.248 C 272.178 449.432 272.038 449.464 271.854 449.344 Z M 427.429 459.484 L 427.429 456.82 L 424.837 456.82 L 424.837 455.572 L 427.429 455.572 L 427.429 452.908 L 428.677 452.908 L 428.677 455.572 L 431.269 455.572 L 431.269 456.82 L 428.677 456.82 L 428.677 459.484 L 427.429 459.484 Z M -405.808 476.044 C -404.416 476.044 -403.264 477.196 -403.264 478.588 C -403.264 480.004 -404.416 481.156 -405.808 481.156 C -407.224 481.156 -408.376 480.004 -408.376 478.588 C -408.376 477.196 -407.224 476.044 -405.808 476.044 Z M -249.208 470.74 C -249.208 469.228 -247.984 467.98 -246.448 467.98 C -244.936 467.98 -243.712 469.228 -243.712 470.74 C -243.712 472.252 -244.936 473.476 -246.448 473.476 C -247.984 473.476 -249.208 472.252 -249.208 470.74 Z M -248.152 470.74 C -248.152 471.604 -247.36 472.444 -246.448 472.444 C -245.56 472.444 -244.768 471.628 -244.768 470.74 C -244.768 469.852 -245.56 469.06 -246.448 469.06 C -247.36 469.06 -248.152 469.852 -248.152 470.74 Z M -81.208 470.74 C -81.208 469.228 -79.984 467.98 -78.448 467.98 C -76.936 467.98 -75.712 469.228 -75.712 470.74 C -75.712 472.252 -76.936 473.476 -78.448 473.476 C -79.984 473.476 -81.208 472.252 -81.208 470.74 Z M -80.152 470.74 C -80.152 471.604 -79.36 472.444 -78.448 472.444 C -77.56 472.444 -76.768 471.628 -76.768 470.74 C -76.768 469.852 -77.56 469.06 -78.448 469.06 C -79.36 469.06 -80.152 469.852 -80.152 470.74 Z M 98.192 476.044 C 99.584 476.044 100.736 477.196 100.736 478.588 C 100.736 480.004 99.584 481.156 98.192 481.156 C 96.776 481.156 95.624 480.004 95.624 478.588 C 95.624 477.196 96.776 476.044 98.192 476.044 Z M 602.192 476.044 C 603.584 476.044 604.736 477.196 604.736 478.588 C 604.736 480.004 603.584 481.156 602.192 481.156 C 600.776 481.156 599.624 480.004 599.624 478.588 C 599.624 477.196 600.776 476.044 602.192 476.044 Z M 758.792 470.74 C 758.792 469.228 760.012 467.98 761.552 467.98 C 763.062 467.98 764.292 469.228 764.292 470.74 C 764.292 472.252 763.062 473.476 761.552 473.476 C 760.012 473.476 758.792 472.252 758.792 470.74 Z M 759.852 470.74 C 759.852 471.604 760.642 472.444 761.552 472.444 C 762.442 472.444 763.232 471.628 763.232 470.74 C 763.232 469.852 762.442 469.06 761.552 469.06 C 760.642 469.06 759.852 469.852 759.852 470.74 Z M 926.792 470.74 C 926.792 469.228 928.012 467.98 929.552 467.98 C 931.062 467.98 932.292 469.228 932.292 470.74 C 932.292 472.252 931.062 473.476 929.552 473.476 C 928.012 473.476 926.792 472.252 926.792 470.74 Z M 927.852 470.74 C 927.852 471.604 928.642 472.444 929.552 472.444 C 930.442 472.444 931.232 471.628 931.232 470.74 C 931.232 469.852 930.442 469.06 929.552 469.06 C 928.642 469.06 927.852 469.852 927.852 470.74 Z M 1106.192 476.044 C 1107.582 476.044 1108.732 477.196 1108.732 478.588 C 1108.732 480.004 1107.582 481.156 1106.192 481.156 C 1104.772 481.156 1103.622 480.004 1103.622 478.588 C 1103.622 477.196 1104.772 476.044 1106.192 476.044 Z M -27.974 506.512 C -28.686 506.512 -29.266 506.288 -29.714 505.84 C -30.154 505.384 -30.374 504.808 -30.374 504.112 C -30.374 503.408 -30.154 502.832 -29.714 502.384 C -29.266 501.936 -28.686 501.712 -27.974 501.712 C -27.262 501.712 -26.686 501.936 -26.246 502.384 C -25.798 502.832 -25.574 503.408 -25.574 504.112 C -25.574 504.808 -25.798 505.384 -26.246 505.84 C -26.686 506.288 -27.262 506.512 -27.974 506.512 Z M -27.974 505.528 C -27.55 505.528 -27.214 505.396 -26.966 505.132 C -26.71 504.86 -26.582 504.52 -26.582 504.112 C -26.582 503.696 -26.71 503.356 -26.966 503.092 C -27.214 502.82 -27.55 502.684 -27.974 502.684 C -28.39 502.684 -28.73 502.82 -28.994 503.092 C -29.25 503.356 -29.378 503.696 -29.378 504.112 C -29.378 504.52 -29.25 504.86 -28.994 505.132 C -28.73 505.396 -28.39 505.528 -27.974 505.528 Z M 120.171 517.696 C 119.971 517.696 119.871 517.588 119.871 517.372 L 119.871 513.556 C 119.871 513.34 119.971 513.232 120.171 513.232 L 124.011 513.232 C 124.211 513.232 124.311 513.34 124.311 513.556 L 124.311 517.372 C 124.311 517.588 124.211 517.696 124.011 517.696 L 120.171 517.696 Z M 120.171 509.416 C 119.971 509.416 119.871 509.308 119.871 509.092 L 119.871 505.276 C 119.871 505.06 119.971 504.952 120.171 504.952 L 124.011 504.952 C 124.211 504.952 124.311 505.06 124.311 505.276 L 124.311 509.092 C 124.311 509.308 124.211 509.416 124.011 509.416 L 120.171 509.416 Z M 270.522 517.612 C 270.322 517.612 270.222 517.504 270.222 517.288 L 270.222 513.472 C 270.222 513.256 270.322 513.148 270.522 513.148 L 274.362 513.148 C 274.562 513.148 274.662 513.256 274.662 513.472 L 274.662 517.288 C 274.662 517.504 274.562 517.612 274.362 517.612 L 270.522 517.612 Z M 571.01 509.344 L 570.674 509.152 C 570.49 509.056 570.45 508.92 570.554 508.744 L 572.414 505.504 L 568.694 505.504 C 568.494 505.504 568.394 505.404 568.394 505.204 L 568.394 504.808 C 568.394 504.608 568.494 504.508 568.694 504.508 L 572.414 504.508 L 570.554 501.268 C 570.45 501.092 570.49 500.96 570.674 500.872 L 571.01 500.668 C 571.194 500.564 571.334 500.596 571.43 500.764 L 573.29 503.992 L 575.15 500.764 C 575.262 500.596 575.402 500.564 575.57 500.668 L 575.918 500.872 C 576.094 500.952 576.134 501.084 576.038 501.268 L 574.178 504.508 L 577.898 504.508 C 578.098 504.508 578.198 504.608 578.198 504.808 L 578.198 505.204 C 578.198 505.404 578.098 505.504 577.898 505.504 L 574.178 505.504 L 576.038 508.744 C 576.126 508.928 576.086 509.064 575.918 509.152 L 575.57 509.344 C 575.394 509.464 575.254 509.432 575.15 509.248 L 573.29 506.032 L 571.43 509.248 C 571.334 509.432 571.194 509.464 571.01 509.344 Z M 726.582 519.484 L 726.582 516.82 L 723.992 516.82 L 723.992 515.572 L 726.582 515.572 L 726.582 512.908 L 727.832 512.908 L 727.832 515.572 L 730.422 515.572 L 730.422 516.82 L 727.832 516.82 L 727.832 519.484 L 726.582 519.484 Z M -405.808 536.044 C -404.416 536.044 -403.264 537.196 -403.264 538.588 C -403.264 540.004 -404.416 541.156 -405.808 541.156 C -407.224 541.156 -408.376 540.004 -408.376 538.588 C -408.376 537.196 -407.224 536.044 -405.808 536.044 Z M -249.208 530.74 C -249.208 529.228 -247.984 527.98 -246.448 527.98 C -244.936 527.98 -243.712 529.228 -243.712 530.74 C -243.712 532.252 -244.936 533.476 -246.448 533.476 C -247.984 533.476 -249.208 532.252 -249.208 530.74 Z M -248.152 530.74 C -248.152 531.604 -247.36 532.444 -246.448 532.444 C -245.56 532.444 -244.768 531.628 -244.768 530.74 C -244.768 529.852 -245.56 529.06 -246.448 529.06 C -247.36 529.06 -248.152 529.852 -248.152 530.74 Z M -81.208 530.74 C -81.208 529.228 -79.984 527.98 -78.448 527.98 C -76.936 527.98 -75.712 529.228 -75.712 530.74 C -75.712 532.252 -76.936 533.476 -78.448 533.476 C -79.984 533.476 -81.208 532.252 -81.208 530.74 Z M -80.152 530.74 C -80.152 531.604 -79.36 532.444 -78.448 532.444 C -77.56 532.444 -76.768 531.628 -76.768 530.74 C -76.768 529.852 -77.56 529.06 -78.448 529.06 C -79.36 529.06 -80.152 529.852 -80.152 530.74 Z M 98.192 536.044 C 99.584 536.044 100.736 537.196 100.736 538.588 C 100.736 540.004 99.584 541.156 98.192 541.156 C 96.776 541.156 95.624 540.004 95.624 538.588 C 95.624 537.196 96.776 536.044 98.192 536.044 Z M 602.192 536.044 C 603.584 536.044 604.736 537.196 604.736 538.588 C 604.736 540.004 603.584 541.156 602.192 541.156 C 600.776 541.156 599.624 540.004 599.624 538.588 C 599.624 537.196 600.776 536.044 602.192 536.044 Z M 758.792 530.74 C 758.792 529.228 760.012 527.98 761.552 527.98 C 763.062 527.98 764.292 529.228 764.292 530.74 C 764.292 532.252 763.062 533.476 761.552 533.476 C 760.012 533.476 758.792 532.252 758.792 530.74 Z M 759.852 530.74 C 759.852 531.604 760.642 532.444 761.552 532.444 C 762.442 532.444 763.232 531.628 763.232 530.74 C 763.232 529.852 762.442 529.06 761.552 529.06 C 760.642 529.06 759.852 529.852 759.852 530.74 Z M 926.792 530.74 C 926.792 529.228 928.012 527.98 929.552 527.98 C 931.062 527.98 932.292 529.228 932.292 530.74 C 932.292 532.252 931.062 533.476 929.552 533.476 C 928.012 533.476 926.792 532.252 926.792 530.74 Z M 927.852 530.74 C 927.852 531.604 928.642 532.444 929.552 532.444 C 930.442 532.444 931.232 531.628 931.232 530.74 C 931.232 529.852 930.442 529.06 929.552 529.06 C 928.642 529.06 927.852 529.852 927.852 530.74 Z M 1106.192 536.044 C 1107.582 536.044 1108.732 537.196 1108.732 538.588 C 1108.732 540.004 1107.582 541.156 1106.192 541.156 C 1104.772 541.156 1103.622 540.004 1103.622 538.588 C 1103.622 537.196 1104.772 536.044 1106.192 536.044 Z M 120.467 566.512 C 119.755 566.512 119.175 566.288 118.727 565.84 C 118.287 565.384 118.067 564.808 118.067 564.112 C 118.067 563.408 118.287 562.832 118.727 562.384 C 119.175 561.936 119.755 561.712 120.467 561.712 C 121.179 561.712 121.755 561.936 122.195 562.384 C 122.643 562.832 122.867 563.408 122.867 564.112 C 122.867 564.808 122.643 565.384 122.195 565.84 C 121.755 566.288 121.179 566.512 120.467 566.512 Z M 120.467 565.528 C 120.891 565.528 121.227 565.396 121.475 565.132 C 121.731 564.86 121.859 564.52 121.859 564.112 C 121.859 563.696 121.731 563.356 121.475 563.092 C 121.227 562.82 120.891 562.684 120.467 562.684 C 120.051 562.684 119.711 562.82 119.447 563.092 C 119.191 563.356 119.063 563.696 119.063 564.112 C 119.063 564.52 119.191 564.86 119.447 565.132 C 119.711 565.396 120.051 565.528 120.467 565.528 Z M 418.748 569.344 L 418.412 569.152 C 418.228 569.056 418.188 568.92 418.292 568.744 L 420.152 565.504 L 416.432 565.504 C 416.232 565.504 416.132 565.404 416.132 565.204 L 416.132 564.808 C 416.132 564.608 416.232 564.508 416.432 564.508 L 420.152 564.508 L 418.292 561.268 C 418.188 561.092 418.228 560.96 418.412 560.872 L 418.748 560.668 C 418.932 560.564 419.072 560.596 419.168 560.764 L 421.028 563.992 L 422.888 560.764 C 423 560.596 423.14 560.564 423.308 560.668 L 423.656 560.872 C 423.832 560.952 423.872 561.084 423.776 561.268 L 421.916 564.508 L 425.636 564.508 C 425.836 564.508 425.936 564.608 425.936 564.808 L 425.936 565.204 C 425.936 565.404 425.836 565.504 425.636 565.504 L 421.916 565.504 L 423.776 568.744 C 423.864 568.928 423.824 569.064 423.656 569.152 L 423.308 569.344 C 423.132 569.464 422.992 569.432 422.888 569.248 L 421.028 566.032 L 419.168 569.248 C 419.072 569.432 418.932 569.464 418.748 569.344 Z M 574.323 579.484 L 574.323 576.82 L 571.731 576.82 L 571.731 575.572 L 574.323 575.572 L 574.323 572.908 L 575.571 572.908 L 575.571 575.572 L 578.163 575.572 L 578.163 576.82 L 575.571 576.82 L 575.571 579.484 L 574.323 579.484 Z M -221.688 607.612 C -221.888 607.612 -221.988 607.504 -221.988 607.288 L -221.988 603.472 C -221.988 603.256 -221.888 603.148 -221.688 603.148 L -217.848 603.148 C -217.649 603.148 -217.549 603.256 -217.549 603.472 L -217.549 607.288 C -217.549 607.504 -217.649 607.612 -217.848 607.612 L -221.688 607.612 Z M -60.597 596.044 C -59.205 596.044 -58.053 597.196 -58.053 598.588 C -58.053 600.004 -59.205 601.156 -60.597 601.156 C -62.013 601.156 -63.165 600.004 -63.165 598.588 C -63.165 597.196 -62.013 596.044 -60.597 596.044 Z M 96.003 590.74 C 96.003 589.228 97.227 587.98 98.763 587.98 C 100.275 587.98 101.499 589.228 101.499 590.74 C 101.499 592.252 100.275 593.476 98.763 593.476 C 97.227 593.476 96.003 592.252 96.003 590.74 Z M 97.059 590.74 C 97.059 591.604 97.851 592.444 98.763 592.444 C 99.651 592.444 100.443 591.628 100.443 590.74 C 100.443 589.852 99.651 589.06 98.763 589.06 C 97.851 589.06 97.059 589.852 97.059 590.74 Z M 264.003 590.74 C 264.003 589.228 265.227 587.98 266.763 587.98 C 268.275 587.98 269.499 589.228 269.499 590.74 C 269.499 592.252 268.275 593.476 266.763 593.476 C 265.227 593.476 264.003 592.252 264.003 590.74 Z M 265.059 590.74 C 265.059 591.604 265.851 592.444 266.763 592.444 C 267.651 592.444 268.443 591.628 268.443 590.74 C 268.443 589.852 267.651 589.06 266.763 589.06 C 265.851 589.06 265.059 589.852 265.059 590.74 Z M 443.403 596.044 C 444.795 596.044 445.947 597.196 445.947 598.588 C 445.947 600.004 444.795 601.156 443.403 601.156 C 441.987 601.156 440.835 600.004 440.835 598.588 C 440.835 597.196 441.987 596.044 443.403 596.044 Z M 918.652 609.484 L 918.652 606.82 L 916.062 606.82 L 916.062 605.572 L 918.652 605.572 L 918.652 602.908 L 919.902 602.908 L 919.902 605.572 L 922.492 605.572 L 922.492 606.82 L 919.902 606.82 L 919.902 609.484 L 918.652 609.484 Z M -442.259 637.612 C -442.459 637.612 -442.559 637.504 -442.559 637.288 L -442.559 633.472 C -442.559 633.256 -442.459 633.148 -442.259 633.148 L -438.419 633.148 C -438.219 633.148 -438.119 633.256 -438.119 633.472 L -438.119 637.288 C -438.119 637.504 -438.219 637.612 -438.419 637.612 L -442.259 637.612 Z M -113.167 626.044 C -111.775 626.044 -110.623 627.196 -110.623 628.588 C -110.623 630.004 -111.775 631.156 -113.167 631.156 C -114.583 631.156 -115.735 630.004 -115.735 628.588 C -115.735 627.196 -114.583 626.044 -113.167 626.044 Z M 43.433 620.74 C 43.433 619.228 44.657 617.98 46.193 617.98 C 47.705 617.98 48.929 619.228 48.929 620.74 C 48.929 622.252 47.705 623.476 46.193 623.476 C 44.657 623.476 43.433 622.252 43.433 620.74 Z M 44.489 620.74 C 44.489 621.604 45.281 622.444 46.193 622.444 C 47.081 622.444 47.873 621.628 47.873 620.74 C 47.873 619.852 47.081 619.06 46.193 619.06 C 45.281 619.06 44.489 619.852 44.489 620.74 Z M 211.433 620.74 C 211.433 619.228 212.657 617.98 214.193 617.98 C 215.705 617.98 216.929 619.228 216.929 620.74 C 216.929 622.252 215.705 623.476 214.193 623.476 C 212.657 623.476 211.433 622.252 211.433 620.74 Z M 212.489 620.74 C 212.489 621.604 213.281 622.444 214.193 622.444 C 215.081 622.444 215.873 621.628 215.873 620.74 C 215.873 619.852 215.081 619.06 214.193 619.06 C 213.281 619.06 212.489 619.852 212.489 620.74 Z M 390.833 626.044 C 392.225 626.044 393.377 627.196 393.377 628.588 C 393.377 630.004 392.225 631.156 390.833 631.156 C 389.417 631.156 388.265 630.004 388.265 628.588 C 388.265 627.196 389.417 626.044 390.833 626.044 Z M 1141.022 626.512 C 1140.302 626.512 1139.722 626.288 1139.282 625.84 C 1138.842 625.384 1138.622 624.808 1138.622 624.112 C 1138.622 623.408 1138.842 622.832 1139.282 622.384 C 1139.722 621.936 1140.302 621.712 1141.022 621.712 C 1141.732 621.712 1142.302 621.936 1142.742 622.384 C 1143.192 622.832 1143.422 623.408 1143.422 624.112 C 1143.422 624.808 1143.192 625.384 1142.742 625.84 C 1142.302 626.288 1141.732 626.512 1141.022 626.512 Z M 1141.022 625.528 C 1141.442 625.528 1141.782 625.396 1142.022 625.132 C 1142.282 624.86 1142.412 624.52 1142.412 624.112 C 1142.412 623.696 1142.282 623.356 1142.022 623.092 C 1141.782 622.82 1141.442 622.684 1141.022 622.684 C 1140.602 622.684 1140.262 622.82 1140.002 623.092 C 1139.742 623.356 1139.612 623.696 1139.612 624.112 C 1139.612 624.52 1139.742 624.86 1140.002 625.132 C 1140.262 625.396 1140.602 625.528 1141.022 625.528 Z M 198.546 667.612 C 198.346 667.612 198.246 667.504 198.246 667.288 L 198.246 663.472 C 198.246 663.256 198.346 663.148 198.546 663.148 L 202.386 663.148 C 202.586 663.148 202.686 663.256 202.686 663.472 L 202.686 667.288 C 202.686 667.504 202.586 667.612 202.386 667.612 L 198.546 667.612 Z M -328.255 686.512 C -328.967 686.512 -329.547 686.288 -329.995 685.84 C -330.435 685.384 -330.655 684.808 -330.655 684.112 C -330.655 683.408 -330.435 682.832 -329.995 682.384 C -329.547 681.936 -328.967 681.712 -328.255 681.712 C -327.543 681.712 -326.967 681.936 -326.527 682.384 C -326.079 682.832 -325.855 683.408 -325.855 684.112 C -325.855 684.808 -326.079 685.384 -326.527 685.84 C -326.967 686.288 -327.543 686.512 -328.255 686.512 Z M -328.255 685.528 C -327.831 685.528 -327.495 685.396 -327.247 685.132 C -326.991 684.86 -326.863 684.52 -326.863 684.112 C -326.863 683.696 -326.991 683.356 -327.247 683.092 C -327.495 682.82 -327.831 682.684 -328.255 682.684 C -328.671 682.684 -329.011 682.82 -329.275 683.092 C -329.531 683.356 -329.659 683.696 -329.659 684.112 C -329.659 684.52 -329.531 684.86 -329.275 685.132 C -329.011 685.396 -328.671 685.528 -328.255 685.528 Z M -32.29 697.612 C -32.49 697.612 -32.59 697.504 -32.59 697.288 L -32.59 693.472 C -32.59 693.256 -32.49 693.148 -32.29 693.148 L -28.45 693.148 C -28.25 693.148 -28.15 693.256 -28.15 693.472 L -28.15 697.288 C -28.15 697.504 -28.25 697.612 -28.45 697.612 L -32.29 697.612 Z M 118.217 693.496 C 117.913 693.496 117.761 693.332 117.761 693.004 L 117.761 687.268 C 117.761 686.948 117.913 686.788 118.217 686.788 L 123.989 686.788 C 124.285 686.788 124.433 686.948 124.433 687.268 L 124.433 693.004 C 124.433 693.332 124.285 693.496 123.989 693.496 L 118.217 693.496 Z M 420.127 686.512 C 419.415 686.512 418.835 686.288 418.387 685.84 C 417.947 685.384 417.727 684.808 417.727 684.112 C 417.727 683.408 417.947 682.832 418.387 682.384 C 418.835 681.936 419.415 681.712 420.127 681.712 C 420.839 681.712 421.415 681.936 421.855 682.384 C 422.303 682.832 422.527 683.408 422.527 684.112 C 422.527 684.808 422.303 685.384 421.855 685.84 C 421.415 686.288 420.839 686.512 420.127 686.512 Z M 420.127 685.528 C 420.551 685.528 420.887 685.396 421.135 685.132 C 421.391 684.86 421.519 684.52 421.519 684.112 C 421.519 683.696 421.391 683.356 421.135 683.092 C 420.887 682.82 420.551 682.684 420.127 682.684 C 419.711 682.684 419.371 682.82 419.107 683.092 C 418.851 683.356 418.723 683.696 418.723 684.112 C 418.723 684.52 418.851 684.86 419.107 685.132 C 419.371 685.396 419.711 685.528 420.127 685.528 Z M 568.272 697.696 C 568.072 697.696 567.972 697.588 567.972 697.372 L 567.972 693.556 C 567.972 693.34 568.072 693.232 568.272 693.232 L 572.112 693.232 C 572.312 693.232 572.412 693.34 572.412 693.556 L 572.412 697.372 C 572.412 697.588 572.312 697.696 572.112 697.696 L 568.272 697.696 Z M 568.272 689.416 C 568.072 689.416 567.972 689.308 567.972 689.092 L 567.972 685.276 C 567.972 685.06 568.072 684.952 568.272 684.952 L 572.112 684.952 C 572.312 684.952 572.412 685.06 572.412 685.276 L 572.412 689.092 C 572.412 689.308 572.312 689.416 572.112 689.416 L 568.272 689.416 Z M 718.622 697.612 C 718.422 697.612 718.322 697.504 718.322 697.288 L 718.322 693.472 C 718.322 693.256 718.422 693.148 718.622 693.148 L 722.462 693.148 C 722.662 693.148 722.762 693.256 722.762 693.472 L 722.762 697.288 C 722.762 697.504 722.662 697.612 722.462 697.612 L 718.622 697.612 Z M 1019.112 689.344 L 1018.772 689.152 C 1018.592 689.056 1018.552 688.92 1018.652 688.744 L 1020.512 685.504 L 1016.792 685.504 C 1016.592 685.504 1016.492 685.404 1016.492 685.204 L 1016.492 684.808 C 1016.492 684.608 1016.592 684.508 1016.792 684.508 L 1020.512 684.508 L 1018.652 681.268 C 1018.552 681.092 1018.592 680.96 1018.772 680.872 L 1019.112 680.668 C 1019.292 680.564 1019.432 680.596 1019.532 680.764 L 1021.392 683.992 L 1023.252 680.764 C 1023.362 680.596 1023.502 680.564 1023.672 680.668 L 1024.022 680.872 C 1024.192 680.952 1024.232 681.084 1024.142 681.268 L 1022.282 684.508 L 1026.002 684.508 C 1026.202 684.508 1026.302 684.608 1026.302 684.808 L 1026.302 685.204 C 1026.302 685.404 1026.202 685.504 1026.002 685.504 L 1022.282 685.504 L 1024.142 688.744 C 1024.232 688.928 1024.192 689.064 1024.022 689.152 L 1023.672 689.344 C 1023.492 689.464 1023.352 689.432 1023.252 689.248 L 1021.392 686.032 L 1019.532 689.248 C 1019.432 689.432 1019.292 689.464 1019.112 689.344 Z M 1174.682 699.484 L 1174.682 696.82 L 1172.092 696.82 L 1172.092 695.572 L 1174.682 695.572 L 1174.682 692.908 L 1175.932 692.908 L 1175.932 695.572 L 1178.522 695.572 L 1178.522 696.82 L 1175.932 696.82 L 1175.932 699.484 L 1174.682 699.484 Z M -367.336 729.488 L -367.336 726.818 L -369.928 726.818 L -369.928 725.568 L -367.336 725.568 L -367.336 722.908 L -366.088 722.908 L -366.088 725.568 L -363.496 725.568 L -363.496 726.818 L -366.088 726.818 L -366.088 729.488 L -367.336 729.488 Z M 226.061 727.608 C 225.861 727.608 225.761 727.508 225.761 727.288 L 225.761 723.468 C 225.761 723.258 225.861 723.148 226.061 723.148 L 229.901 723.148 C 230.101 723.148 230.201 723.258 230.201 723.468 L 230.201 727.288 C 230.201 727.508 230.101 727.608 229.901 727.608 L 226.061 727.608 Z M 555.153 716.044 C 556.545 716.044 557.697 717.196 557.697 718.588 C 557.697 720.008 556.545 721.158 555.153 721.158 C 553.737 721.158 552.585 720.008 552.585 718.588 C 552.585 717.196 553.737 716.044 555.153 716.044 Z M 711.752 710.74 C 711.752 709.228 712.972 707.98 714.512 707.98 C 716.022 707.98 717.252 709.228 717.252 710.74 C 717.252 712.252 716.022 713.476 714.512 713.476 C 712.972 713.476 711.752 712.252 711.752 710.74 Z M 712.812 710.74 C 712.812 711.604 713.602 712.444 714.512 712.444 C 715.402 712.444 716.192 711.628 716.192 710.74 C 716.192 709.852 715.402 709.06 714.512 709.06 C 713.602 709.06 712.812 709.852 712.812 710.74 Z M 879.752 710.74 C 879.752 709.228 880.972 707.98 882.512 707.98 C 884.022 707.98 885.252 709.228 885.252 710.74 C 885.252 712.252 884.022 713.476 882.512 713.476 C 880.972 713.476 879.752 712.252 879.752 710.74 Z M 880.812 710.74 C 880.812 711.604 881.602 712.444 882.512 712.444 C 883.402 712.444 884.192 711.628 884.192 710.74 C 884.192 709.852 883.402 709.06 882.512 709.06 C 881.602 709.06 880.812 709.852 880.812 710.74 Z M 1059.152 716.044 C 1060.542 716.044 1061.692 717.196 1061.692 718.588 C 1061.692 720.008 1060.542 721.158 1059.152 721.158 C 1057.732 721.158 1056.582 720.008 1056.582 718.588 C 1056.582 717.196 1057.732 716.044 1059.152 716.044 Z" fill="white"/>
</svg>